<?xml version="1.0" encoding="UTF-8" standalone="no"?>
<svg
   xmlns:dc="http://purl.org/dc/elements/1.1/"
   xmlns:cc="http://creativecommons.org/ns#"
   xmlns:rdf="http://www.w3.org/1999/02/22-rdf-syntax-ns#"
   xmlns:svg="http://www.w3.org/2000/svg"
   xmlns="http://www.w3.org/2000/svg"
   xmlns:sodipodi="http://sodipodi.sourceforge.net/DTD/sodipodi-0.dtd"
   xmlns:inkscape="http://www.inkscape.org/namespaces/inkscape"
   version="1.1"
   id="Layer_1"
   x="0px"
   y="0px"
   width="32px"
   height="32px"
   viewBox="0 0 32 32"
   enable-background="new 0 0 32 32"
   xml:space="preserve"
   inkscape:version="0.48.3.1 r9886"
   sodipodi:docname="file-white.svg"><metadata
   id="metadata2992"><rdf:RDF><cc:Work
       rdf:about=""><dc:format>image/svg+xml</dc:format><dc:type
         rdf:resource="http://purl.org/dc/dcmitype/StillImage" /></cc:Work></rdf:RDF></metadata><defs
   id="defs2990" /><sodipodi:namedview
   pagecolor="#ffffff"
   bordercolor="#666666"
   borderopacity="1"
   objecttolerance="10"
   gridtolerance="10"
   guidetolerance="10"
   inkscape:pageopacity="0"
   inkscape:pageshadow="2"
   inkscape:window-width="640"
   inkscape:window-height="480"
   id="namedview2988"
   showgrid="false"
   inkscape:zoom="7.375"
   inkscape:cx="16"
   inkscape:cy="16"
   inkscape:window-x="40"
   inkscape:window-y="0"
   inkscape:window-maximized="0"
   inkscape:current-layer="Layer_1" />
<path
   id="Page"
   d="M22.4,5.766c-1.744-1.693-3.625-3.051-5.168-3.236c-0.084-0.012-0.17-0.019-0.271-0.021H6.814  c-0.162,0-0.321,0.062-0.436,0.181C6.266,2.803,6.198,2.963,6.198,3.127v25.75c0,0.146,0.063,0.312,0.181,0.435  c0.117,0.116,0.271,0.18,0.436,0.18h18.364c0.162,0,0.317-0.062,0.435-0.18c0.117-0.115,0.188-0.271,0.188-0.435V11.74  C25.759,9.754,24.202,7.585,22.4,5.766z M21.535,6.638c0.805,0.786,1.527,1.677,2.068,2.534c-0.479-0.187-0.959-0.322-1.42-0.433  c-1.021-0.228-2.021-0.318-2.625-0.355c0.002-0.133,0.004-0.283,0.004-0.446c0-0.869-0.062-2.107-0.355-3.199  c-0.003-0.011-0.005-0.021-0.01-0.03C19.961,5.214,20.794,5.883,21.535,6.638z M24.561,28.258H7.429V3.74h9.542v0.002  c0.416-0.024,0.775,0.387,1.051,1.326c0.25,0.896,0.312,2.062,0.312,2.871c0.002,0.592-0.025,0.99-0.025,0.99l-0.051,0.651  l0.656,0.008c0.003,0,1.516,0.019,3,0.354c1.426,0.31,2.541,0.922,2.646,1.617c0.004,0.062,0.004,0.124,0.004,0.182v16.517H24.561z"
   style="fill:#ffffff" />
</svg>