<?xml version="1.0" encoding="UTF-8" standalone="no"?>
<!-- Created with Inkscape (http://www.inkscape.org/) -->

<svg
   xmlns:dc="http://purl.org/dc/elements/1.1/"
   xmlns:cc="http://creativecommons.org/ns#"
   xmlns:rdf="http://www.w3.org/1999/02/22-rdf-syntax-ns#"
   xmlns:svg="http://www.w3.org/2000/svg"
   xmlns="http://www.w3.org/2000/svg"
   xmlns:sodipodi="http://sodipodi.sourceforge.net/DTD/sodipodi-0.dtd"
   xmlns:inkscape="http://www.inkscape.org/namespaces/inkscape"
   id="svg2"
   version="1.1"
   inkscape:version="0.48.3.1 r9886"
   width="564.06946"
   height="317.43857"
   sodipodi:docname="delorean.svg">
  <metadata
     id="metadata8">
    <rdf:RDF>
      <cc:Work
         rdf:about="">
        <dc:format>image/svg+xml</dc:format>
        <dc:type
           rdf:resource="http://purl.org/dc/dcmitype/StillImage" />
        <dc:title></dc:title>
      </cc:Work>
    </rdf:RDF>
  </metadata>
  <defs
     id="defs6" />
  <sodipodi:namedview
     pagecolor="#ffffff"
     bordercolor="#666666"
     borderopacity="1"
     objecttolerance="10"
     gridtolerance="10"
     guidetolerance="10"
     inkscape:pageopacity="0"
     inkscape:pageshadow="2"
     inkscape:window-width="1880"
     inkscape:window-height="1175"
     id="namedview4"
     showgrid="false"
     fit-margin-top="0"
     fit-margin-left="0"
     fit-margin-right="0"
     fit-margin-bottom="0"
     inkscape:zoom="0.96130346"
     inkscape:cx="388.37055"
     inkscape:cy="89.601685"
     inkscape:window-x="40"
     inkscape:window-y="0"
     inkscape:window-maximized="1"
     inkscape:current-layer="svg2" />
  <path
     id="path2987"
     style="fill:#ffffff"
     d="m 459.095,22.62511 c -0.045,-2.859839 -0.2122,-3.134189 -0.9144,-1.499999 -0.4727,1.099999 -0.8842,3.349999 -0.9144,4.999999 -0.042,2.29109 0.1741,2.645551 0.9144,1.5 0.5331,-0.825 0.9446,-3.075 0.9144,-5 z m -52.6247,8.000001 c -0.2876,-1.1 -0.6955,-2.000001 -0.9064,-2.000001 -0.2108,0 -0.3833,0.900001 -0.3833,2.000001 0,1.1 0.4078,2 0.9064,2 0.4985,0 0.671,-0.9 0.3833,-2 z m 11.7103,1.125 c 0,-1.91299 -3.3867,-3.125001 -8.732,-3.125001 -1.8524,0 -2.328,0.401241 -1.875,1.581791 0.3338,0.86998 0.607,1.99498 0.607,2.5 0,0.50501 2.25,0.91821 5,0.91821 4.2222,0 5,-0.29167 5,-1.875 z m 21.5424,4.125 c 0.9748,-1.5125 2.3766,-3.10986 3.115,-3.54969 0.7384,-0.43983 1.3426,-2.33194 1.3426,-4.204691 0,-3.86091 -0.1202,-3.90379 -14.089,-5.02626 -7.2864,-0.58551 -7.6537,-0.51103 -9.2124,1.86785 -1.4008,2.13791 -1.4229,2.55462 -0.161,3.03884 0.8194,0.31445 1.4624,1.840121 1.4624,3.470121 0,3.94708 2.2697,5.54205 8.9036,6.25681 3.078,0.33164 5.8821,0.66914 6.2314,0.75 0.3492,0.0809 1.4325,-1.09048 2.4074,-2.60298 z m -69.6258,2.14709 c 0.9747,-0.92891 -0.9332,-1.27183 -9.4249,-1.69392 -6.0906,-0.30275 -10.0403,-0.0208 -12.2417,0.87391 -1.7875,0.72648 -3.25,1.45633 -3.2501,1.62189 0,0.4475 24.4308,-0.33875 24.9167,-0.80188 z m 53.5669,1.62955 c 0.3309,-0.53534 -0.3176,-1.76035 -1.441,-2.72224 -1.143,-0.97865 -2.0946,-3.08234 -2.1608,-4.77664 l -0.1184,-3.02776 -0.7025,3 c -0.4569,1.95063 -0.2406,3.55223 0.6183,4.57874 0.7265,0.86831 1.3209,2.10581 1.3209,2.75 0,1.4183 1.6481,1.54963 2.4835,0.1979 z m 37.481,1.22336 c -0.02,-0.4125 -0.6785,-1.875 -1.4645,-3.25 -0.786,-1.375 -1.4451,-3.71094 -1.4646,-5.19098 -0.019,-1.48004 -0.4854,-2.9691 -1.0354,-3.30902 -1.4998,-0.926921 -1.2066,-5.099311 0.6522,-9.28212 0.9087,-2.04483 1.9392,-6.32052 2.29,-9.501524 0.5899,-5.3485788 0.476,-5.8242658 -1.5138,-6.3236778 -1.1834,-0.29702 -3.6665,-0.39438 -5.5179,-0.216357 -3.8002,0.365401 -3.4764,-0.648265 -5.9238,18.5481678 -1.0754,8.435081 -1.7133,10.609501 -3.6451,12.424321 -1.2879,1.2099 -2.3416,2.53556 -2.3416,2.94591 0,0.41035 2.9312,1.06 6.5139,1.44367 3.5826,0.38367 6.7592,1.09449 7.059,1.5796 0.6614,1.07016 6.4416,1.18954 6.3916,0.13201 z m -20.9645,0.83756 c 2.1197,-0.60461 1.7562,-0.81761 -2.3896,-1.40032 -6.8447,-0.96204 -12.3884,-0.85554 -13.0723,0.25115 -0.9387,1.51881 11.0437,2.40938 15.4619,1.14917 z m 21,1.91244 c 0,-0.55 -1.4625,-0.99311 -3.25,-0.98469 -2.4662,0.0116 -2.8883,0.24909 -1.75,0.98469 1.9655,1.2702 5,1.2702 5,0 z m -21,2.55902 c 0,-0.24254 -0.45,-0.7191 -1,-1.05902 -0.55,-0.33992 -1,-0.14148 -1,0.44098 0,0.58246 0.45,1.05902 1,1.05902 0.55,0 1,-0.19844 1,-0.44098 z m -54.7363,-8.2766 c 1.5201,-0.22986 3.7701,-0.22371 5,0.0136 1.23,0.23736 -0.014,0.42542 -2.7637,0.41792 -2.75,-0.008 -3.7563,-0.20172 -2.2363,-0.43157 z m 11.4863,1.01185 c 1.2375,-0.23836 3.2625,-0.23836 4.5,0 1.2375,0.23835 0.225,0.43337 -2.25,0.43337 -2.475,0 -3.4875,-0.19502 -2.25,-0.43337 z m 9,1 c 1.2375,-0.23836 3.2625,-0.23836 4.5,0 1.2375,0.23835 0.225,0.43337 -2.25,0.43337 -2.475,0 -3.4875,-0.19502 -2.25,-0.43337 z m 30.25,5.20573 c 0,-0.825 -0.5625,-1.52982 -1.25,-1.56627 -5.3912,-0.28579 -21.4405,-2.73357 -18.5,-2.82154 2.5756,-0.077 3.75,-0.57094 3.75,-1.57701 0,-2.33634 -3.8459,-3.7894 -13.5,-5.10058 -4.95,-0.67229 -7.5375,-1.2701 -5.75,-1.32847 2.5479,-0.0832 3.25,-0.53816 3.25,-2.10613 0,-2.662791 -5.576,-2.879221 -6.441,-0.25 -0.9016,2.74034 -10.7472,6.45895 -18.5859,7.01981 -4.4794,0.3205 -6.9731,0.92804 -6.9731,1.69882 0,0.8256 5.693,1.74447 18.25,2.94561 10.0375,0.96014 22.75,2.33276 28.25,3.05026 14.1798,1.84983 17.5,1.85657 17.5,0.0355 z m 31.8813,3.99683 c -3.4247,-1.86112 -23.4434,-5.87886 -25.4518,-5.10816 -3.0323,1.16361 -0.3916,2.33934 6.7927,3.02437 4.0028,0.38166 9.9778,1.29876 13.2778,2.03798 7.8144,1.75048 8.5293,1.75657 5.3813,0.0458 z m -131.8813,0.6289 c 4.675,-1.06496 14.4514,-2.98004 21.7253,-4.25572 7.2739,-1.27568 12.861,-2.6837 12.4157,-3.12894 -2.595,-2.59509 -36.9599,0.15226 -70.641,5.64751 -7.9783,1.30171 -7.9878,1.30688 -3.5,1.91353 6.7402,0.91112 28.2822,2.38363 30,2.05066 0.825,-0.15991 5.325,-1.16208 10,-2.22704 z m 45.5,2.5711 c 7.7,-1.9799 17.375,-4.16582 21.5,-4.8576 l 7.5,-1.2578 -14,-1.45331 c -12.7289,-1.32137 -14.908,-1.30058 -24,0.22891 -21.9908,3.69937 -38.5,7.05625 -38.5,7.82834 0,0.44805 2.1375,0.84907 4.75,0.89116 2.6125,0.0421 8.8,0.67054 13.75,1.39654 11.3005,1.65742 12.0278,1.58779 29,-2.77624 z m 137.6451,-4.37516 c 5.1452,-6.97308 9.6798,-13.21061 10.0769,-13.86119 0.5269,-0.86324 -2.5805,-1.49905 -11.5,-2.35299 -6.7221,-0.64358 -13.4168,-1.40741 -14.877,-1.6974 -2.4035,-0.47732 -3.4784,0.53149 -11.3466,10.64905 -8.0254,10.31978 -8.5669,11.30095 -7.0654,12.80245 1.5532,1.55316 18.7173,6.73539 23.2121,7.00821 1.6497,0.10014 4.3051,-2.7972 11.5,-12.54813 z m 11.8549,4.17833 c 0,-8.525 -0.17,-15.5 -0.3777,-15.5 -0.5435,0 -17.6309,22.85091 -18.1658,24.2931 -0.2847,0.76744 2.5547,2.17009 7.7979,3.85214 4.5351,1.45489 8.8081,2.69239 9.4956,2.75 0.9507,0.0797 1.25,-3.60604 1.25,-15.39524 z m -13,13.86028 c -6.9901,-2.2399 -25.9009,-7.36028 -27.1834,-7.36028 -3.3531,0 1.7875,1.81506 14.4773,5.11167 14.3512,3.72825 20.99,4.90312 12.7061,2.24861 z m 22.3065,14.5443 c -2.5269,-4.32977 -5.8411,-6.44638 -14.5398,-9.28592 -9.3041,-3.03717 -28.6289,-7.83126 -29.8828,-7.4133 -0.5087,0.16957 1.3339,3.30843 4.0947,6.97526 4.9569,6.58354 5.0541,6.64985 7.7705,5.30085 1.513,-0.75135 4.9169,-1.94302 7.5644,-2.64816 l 4.8134,-1.28208 10.6866,5.58062 c 5.8775,3.06933 10.8244,5.6453 10.993,5.72438 0.1686,0.0791 -0.5064,-1.24917 -1.5,-2.95165 z m -328.30944,2.56339 2.49706,-1.28275 -3.49706,-0.94544 c -3.96931,-1.07312 -5.99705,-0.07564 -5.99705,2.95005 0,2.10002 1.88179,1.90588 6.99705,-0.72186 z m 337.87744,3.28203 c -3.3338,-6.273 -6.6267,-10.09106 -10.3048,-11.94827 l -4.0697,-2.05493 3.7137,3.63951 c 2.0426,2.00173 4.2444,5.41084 4.8931,7.5758 1.1049,3.68804 1.6433,4.11515 6.1784,4.90171 0.4318,0.0749 0.247,-0.87632 -0.4107,-2.11382 z m -34.8745,3.28515 c 0,-1.08065 -0.9509,-2.47371 -2.1131,-3.09569 -2.1091,-1.12877 -2.1096,-1.12511 -0.2844,1.96482 2.1456,3.63217 2.3975,3.75098 2.3975,1.13087 z m 20.75,-0.0859 c 7.2862,-3.14901 5.9422,-4.95939 -8.5504,-11.51756 l -8.3004,-3.75607 -5.6211,1.91219 c -6.2435,2.12387 -7.2003,3.34717 -4.6291,5.91834 1.4207,1.42067 2.8136,1.62589 7.6236,1.12314 7.4317,-0.77676 9.7274,0.34172 9.7274,4.73923 0,5.29562 0.8395,5.43173 9.75,1.58073 z m -12.25,-0.94925 c 0,-1.83333 -0.4722,-3.49073 -1.0493,-3.6831 -0.6212,-0.20706 -1.0292,1.28749 -1,3.66314 0.027,2.20835 0.499,3.8646 1.0493,3.6831 0.55,-0.18139 1,-1.82981 1,-3.66314 z m -4.5279,-1.53362 c -1.8674,-2.25007 -2.7408,-1.75233 -2.2524,1.28362 0.8371,5.2031 1.4492,5.93191 2.4912,2.96638 0.6972,-1.98393 0.6285,-3.2049 -0.2388,-4.25 z m 4.757,9.92945 c -0.3322,-0.33229 -1.1948,-0.36781 -1.9166,-0.0789 -0.7978,0.31922 -0.5608,0.55618 0.6041,0.60416 1.0542,0.0434 1.6448,-0.19293 1.3125,-0.52522 z m 18.2709,6.604169 c 6.8096,-3.4375 8.6184,-3.655279 11.1712,-1.34501 1.0058,0.91024 1.8288,1.16076 1.8288,0.5567 0,-1.4647 -4.0118,-4.211689 -6.1509,-4.211689 -1.5749,0 -13.8491,6.750689 -13.8491,7.616879 0,0.76447 1.1625,0.32987 7,-2.61688 z m 9.5667,7.38131 c 4.0376,-3.07965 4.1933,-3.92668 1.1833,-6.43775 -2.9201,-2.436 -4.0613,-2.39966 -8.7129,0.27744 l -3.859,2.221 3.6609,3.23737 c 2.0135,1.78056 3.8035,3.25611 3.9777,3.279 0.1742,0.0229 1.8617,-1.13678 3.75,-2.57706 z m -398.01148,1.19312 c 3.81964,-1.33406 6.46994,-2.45906 5.88958,-2.5 -0.58037,-0.0409 -4.18037,1.01707 -8,2.35114 -3.81964,1.33406 -6.46994,2.45906 -5.88958,2.5 0.58037,0.0409 4.18037,-1.01707 8,-2.35114 z m 382.94438,3.60769 c 3.6161,-1.64762 7.6386,-1.474 10.3829,0.44815 2.2525,1.57772 2.4595,1.49826 6.4235,-2.46569 4.9748,-4.97486 4.2704,-6.60961 -0.9824,-2.27979 -3.7595,3.09892 -6.3236,3.97722 -6.3236,2.1661 0,-0.52201 -1.5353,-2.12009 -3.4117,-3.5513 l -3.4116,-2.6022 -6.3428,3.30131 -6.3428,3.3013 0.8959,5.25469 0.8958,5.2547 2.8112,-3.82257 c 1.5461,-2.10242 3.9786,-4.35453 5.4056,-5.0047 z m 17.3597,11.29688 c 1.1774,-3.58655 2.1407,-7.88073 2.1407,-9.54263 l 0,-3.02163 -3.347,2.67062 c -3.2399,2.58521 -3.3189,2.81844 -2.4691,7.29263 0.4828,2.54211 0.6304,5.63451 0.3279,6.87201 -0.3025,1.2375 -0.1547,2.25 0.3284,2.25 0.4831,0 1.8417,-2.93445 3.0191,-6.521 z m -7.3526,-3.27995 c -0.5048,-3.36873 -1.1897,-4.50821 -3.1596,-5.25716 -3.6866,-1.40164 -4.6587,-0.18826 -2.3956,2.99 1.0932,1.53531 2.7889,5.42094 3.7681,8.63474 l 1.7804,5.84326 0.3256,-3.95494 c 0.1791,-2.17522 0.036,-5.89038 -0.3189,-8.2559 z m -7.4234,-29.571869 c 1.0291,-0.92077 6.9167,-3.62641 6.9167,-3.17854 0,0.57598 -5.5438,3.55136 -6.617,3.55136 -0.394,0 -0.5289,-0.16777 -0.2997,-0.37282 z m -5.35,2.24873 c 0.6783,-0.68342 1.4852,-0.99067 1.7931,-0.68278 0.3079,0.30789 -0.2471,0.86705 -1.2333,1.24258 -1.4252,0.54268 -1.5401,0.42782 -0.5598,-0.5598 z m -5.7333,2.62409 c 1.375,-0.78602 2.95,-1.42913 3.5,-1.42913 0.55,0 -0.125,0.64311 -1.5,1.42913 -1.375,0.78602 -2.95,1.429129 -3.5,1.429129 -0.55,0 0.125,-0.643109 1.5,-1.429129 z m -7.6146,6.552039 c -4.9748,-3.65848 -18.5114,-21.155999 -24.7697,-32.017369 -2.2451,-3.8964 1.7608,1.2999 8.5332,11.06917 8.4718,12.2205 13.5018,18.040779 18.5543,21.469489 1.9667,1.33467 3.1517,2.42667 2.6333,2.42667 -0.5184,0 -2.7464,-1.32658 -4.9511,-2.94796 z m 35.889,26.8112 c 3.6945,-5.9613 5.0905,-14.81892 3.7038,-23.49982 -0.5846,-3.65919 -1.5488,-7.60041 -2.1427,-8.75825 -1.7119,-3.337179 -6.0636,-7.603739 -7.7726,-7.620479 -1.334,-0.0131 -1.3508,-0.14951 -0.1151,-0.93129 1.1282,-0.71376 0.822,-1.07306 -1.3869,-1.62746 -2.2447,-0.56339 -4.856,0.28308 -12.5469,4.06718 -5.3418,2.62826 -11.1058,4.83 -12.8089,4.89277 -3.2506,0.11979 -3.101,1.084229 0.2949,1.901039 1.9436,0.4675 1.9416,0.48434 -0.068,0.59707 -3.2447,0.18197 -8.4479,-5.373849 -17.3419,-18.517169 -13.5786,-20.06606 -24.0618,-30.46331 -33.0897,-32.81832 -2.3849,-0.6221 -2.3618,-0.54739 0.5,1.62165 8.1727,6.19436 15.5079,14.60438 26.0739,29.89459 12.7381,18.433559 22.4972,28.935249 26.8892,28.935249 2.7915,0 9.0749,-2.79526 8.2155,-3.65476 -0.2791,-0.279 -1.4163,-0.0208 -2.5272,0.57374 -1.111,0.59456 -2.612,1.0525 -3.3357,1.01763 -0.7236,-0.0349 -0.2343,-0.49586 1.0875,-1.02445 1.3217,-0.52858 5.6345,-2.97506 9.5839,-5.43661 3.9494,-2.461549 8.0553,-4.475549 9.1243,-4.475549 2.986,0 6.2049,2.719719 8.4672,7.154069 1.8853,3.69551 1.9664,4.72488 0.9989,12.68392 -0.7136,5.87069 -1.9737,10.52517 -3.9104,14.44376 -3.3258,6.72897 -1.9396,7.11145 2.1073,0.58149 z m -44.5003,0.13302 c 4.2456,-2.58851 5.6355,-2.5855 1.7259,0.004 -1.65,1.09275 -3.45,1.9881 -4,1.98967 -0.55,0.002 0.4734,-0.89546 2.2741,-1.99341 z m 3.9867,2.85452 5.5042,-3.14921 -0.5673,-6.60079 c -0.868,-10.10041 -3.8932,-18.50426 -8.4343,-23.43085 -2.1579,-2.341009 -6.3224,-7.836919 -9.2546,-12.213149 -19.1859,-28.63479 -26.6183,-35.84297 -40.1256,-38.91516 -3.9244,-0.89258 -7.2967,-1.46152 -7.4939,-1.26431 -0.1972,0.19721 3.347,1.42872 7.8761,2.73668 12.2285,3.53153 18.3461,9.84799 32.614,33.67424 9.6654,16.140329 12.2172,24.036289 12.197,37.739989 -0.012,8.17252 0.7183,14.57178 1.6631,14.57178 0.2844,0 2.9939,-1.41715 6.0213,-3.14922 z m -117.6609,-13.9963 c 3.417,-13.33781 9.9001,-44.503939 9.9001,-47.592629 0,-1.1791 -0.4397,-2.41557 -0.9772,-2.74772 -3.1168,-1.92631 -60.8001,-9.67358 -115.3305,-15.48972 l -9.8077,-1.04607 -7.1923,3.152 c -14.96371,6.5578 -31.6381,14.7854 -44.19229,21.80567 -14.93642,8.35242 -29.45178,17.29138 -29.48041,18.15486 -0.0351,1.05877 10.35272,2.876019 15.56987,2.723789 3.35529,-0.0979 6.59231,0.56562 9.5,1.94731 6.55139,3.11312 63.72123,14.40969 66.20303,13.08149 2.5764,-1.37887 6.2562,-0.66083 18.2492,3.56098 7.4459,2.62116 17.0102,4.68374 36.9999,7.97923 38.6277,6.36811 45.8524,7.38025 46.8039,6.55694 0.465,-0.40241 2.1545,-5.84117 3.7544,-12.08613 z m -11.5999,13.92654 c -68.3703,-10.96505 -69.1713,-11.12232 -81.8287,-16.06734 -6.912,-2.70036 -8.2103,-2.92053 -11.0876,-1.8801 -2.8391,1.02664 -7.1116,0.40523 -33.17128,-4.82458 -16.45182,-3.30165 -32.01298,-6.96397 -34.58034,-8.1385 -3.0642,-1.40181 -6.46929,-2.09491 -9.91111,-2.01737 -5.29476,0.11929 -16.67271,-2.28312 -18.30547,-3.865129 -2.44434,-2.36837 41.02067,-26.94252 73.36744,-41.48033 l 10.15076,-4.56213 10.6832,1.07373 c 39.8959,4.00981 104.9615,12.57914 114.4331,15.07117 3.3844,0.89045 3.75,1.31109 3.75,4.31429 0,7.70314 -11.6701,59.287839 -14.0658,62.174539 -0.6485,0.7814 -1.6865,1.36297 -2.3067,1.29237 -0.6201,-0.0706 -3.8275,-0.56137 -7.1275,-1.09062 z m 13.0397,-0.53024 c 5.0867,-12.17423 16.2616,-65.836229 14.1371,-67.886579 -3.4276,-3.30806 -78.1043,-12.59572 -120.1909,-14.94834 -11.8928,-0.66481 -12.0946,-0.63938 -19.99998,2.52094 -12.92943,5.16881 -65.68808,32.50527 -69.35429,35.93535 -1.85261,1.73329 -6.02194,4.78931 -9.26517,6.79114 -3.24323,2.00184 -5.77746,3.754319 -5.63162,3.894409 2.26909,2.1795 78.89825,17.70212 135.33516,27.41458 19.9602,3.43503 64.6329,9.85901 69.1666,9.94622 3.9781,0.0765 4.3321,-0.1472 5.8031,-3.66772 z m 114.0322,5.1542 c 5.9635,-3.49486 5.618,-4.04164 -0.5719,-0.90498 -2.75,1.39353 -5,2.75111 -5,3.01685 0,0.91435 1.1552,0.4765 5.5719,-2.11187 z M 86.180609,135.17602 c 11.275,-4.00025 28.965711,-10.08247 39.312681,-13.51603 10.34697,-3.43357 18.60319,-6.45234 18.34715,-6.70839 -1.00812,-1.00812 -75.861701,24.77633 -80.405451,27.69688 -2.1945,1.41053 -3.50838,1.84217 22.74562,-7.47246 z m -26,9.44909 c 0.825,-0.53316 1.05,-0.96937 0.5,-0.96937 -0.55,0 -1.675,0.43621 -2.5,0.96937 -0.825,0.53316 -1.05,0.96937 -0.5,0.96937 0.55,0 1.675,-0.43621 2.5,-0.96937 z M 463.1806,93.670801 c 0.825,-0.55829 2.3625,-1.02196 3.4166,-1.03038 2.5585,-0.0204 1.7603,0.55192 -1.9166,1.37439 -2.1909,0.49007 -2.5955,0.3973 -1.5,-0.34401 z m 26.3111,1.61754 c -7.6886,-15.50272 -18.5443,-28.66323 -23.6435,-28.66323 -1.2797,0 -8.097,1.58145 -15.1495,3.51434 -7.0525,1.93288 -12.9978,3.33928 -13.2118,3.12533 -0.4008,-0.40083 19.6618,-6.12028 25.4377,-7.25177 1.7942,-0.35149 4.5361,-0.10028 6.1353,0.56209 2.6088,1.08064 9.3765,8.63282 14.8308,16.55001 2.7269,3.95825 10.5708,19.552359 10.0812,20.041969 -0.2106,0.2106 -2.2267,-3.334839 -4.4802,-7.878739 z m -35.7949,7.336769 c 0.4747,-3.449409 4.3419,-8.003919 6.7895,-7.996259 0.6569,0.002 -0.2142,0.86258 -1.9356,1.91227 -2.0715,1.26311 -3.5029,3.20637 -4.2328,5.746259 l -1.1028,3.83773 0.4817,-3.5 z m -5.3463,7 c 0.016,-0.825 0.3897,-2.625 0.8301,-4 0.6436,-2.00973 0.8064,-2.10779 0.83,-0.5 0.016,1.1 -0.3573,2.9 -0.83,4 -0.5266,1.22531 -0.8481,1.41898 -0.8301,0.5 z m 3,2.5 c -0.016,-1.1 0.3574,-2.9 0.8301,-4 1.095,-2.54822 1.095,0.0808 0,3.5 -0.6437,2.00973 -0.8064,2.10779 -0.8301,0.5 z m -4.091,0.91667 c 0.048,-1.16495 0.285,-1.4019 0.6042,-0.60417 0.2889,0.72187 0.2533,1.58437 -0.079,1.91667 -0.3323,0.33229 -0.5687,-0.25834 -0.5252,-1.3125 z m 27.2686,3.16988 c 5.8589,-2.7024 10.6484,-5.4024 10.6435,-6 -0.014,-1.64514 -12.4286,-15.851759 -14.5959,-16.702279 -1.5539,-0.60979 -1.5967,-0.75636 -0.2378,-0.81398 1.7018,-0.0722 8.8844,7.337179 13.657,14.087999 2.7597,3.90366 4.188,4.78873 4.1826,2.59171 0,-1.61263 -11.6578,-15.456979 -15.2375,-18.101699 l -2.7407,-2.02479 -6.7593,2.32056 c -9.0324,3.10087 -11.0328,4.47013 -12.142,8.31113 -0.657,2.275179 -0.964,2.612749 -1.0272,1.129659 -0.1641,-3.848629 3.4999,-6.980029 11.4839,-9.814399 6.3393,-2.25049 8.1089,-2.52623 10.2908,-1.6035 2.2649,0.95782 9.3008,8.4429 15.977,16.997079 1.7187,2.20214 2.2043,2.33592 4.5687,1.25865 1.455,-0.66296 2.9068,-1.8864 3.2262,-2.71874 1.3128,-3.42107 -12.4567,-27.514939 -21.5762,-37.753949 -4.9236,-5.52806 -5.7206,-5.64797 -18.0606,-2.71729 -14.0376,3.33383 -24.3933,6.94413 -26.275,9.16021 -2.2879,2.69435 -1.5035,3.46573 1.4328,1.40908 1.258,-0.8811 2.9746,-1.58439 3.8147,-1.56286 0.8401,0.0215 0.1773,0.62758 -1.4729,1.34677 -1.6502,0.7192 -3.5789,2.00474 -4.2861,2.85675 -1.0595,1.27665 -7.127,30.359949 -7.1937,34.481659 -0.024,1.4516 4.9883,4.17805 6.6093,3.59545 0.621,-0.22321 4.6633,0.0329 8.9829,0.56924 5.8653,0.72818 8.0443,0.67577 8.6056,-0.20697 0.5654,-0.88903 0.7555,-0.87218 0.7671,0.068 0.024,1.94952 3.0055,1.46773 3.0942,-0.5 0.063,-1.39393 0.1951,-1.4448 0.65,-0.25 0.8327,2.18754 2.374,2.96743 5.8986,2.98469 1.7202,0.008 3.7002,0.7053 4.4001,1.54861 0.6999,0.84332 1.5864,1.40582 1.97,1.25 0.3836,-0.15581 5.491,-2.49435 11.3499,-5.19675 z m -17.3475,10.91345 c -0.9332,-1.12435 -3.7812,-1.5515 -11.3725,-1.70564 l -10.1275,-0.20563 9,-0.33844 c 10.1851,-0.383 13.0277,0.0767 13.8583,2.24108 0.7364,1.91906 0.2299,1.92228 -1.3583,0.009 z m -6,9.80403 c 4.125,-0.99222 8.0625,-2.16809 8.75,-2.61305 0.7419,-0.48017 1.25,-2.97086 1.25,-6.12755 0,-3.04822 -0.5336,-5.7507 -1.25,-6.33094 -0.6875,-0.55682 -6.2,-1.52316 -12.25,-2.14741 -6.05,-0.62426 -12.9536,-1.38251 -15.3412,-1.68499 -4.0364,-0.51137 -4.2952,-0.40528 -3.687,1.511 0.534,1.68271 0.106,1.51293 -2.3319,-0.92506 -4.7482,-4.74818 -4.657,-4.84736 -8.624,9.37146 -1.8731,6.71352 -1.5647,7.90495 1.0158,3.92372 2.4168,-3.72862 5.3437,-6.21184 8.1527,-6.91685 1.2736,-0.31965 2.3472,-1.09489 2.3859,-1.72277 0.039,-0.62787 0.457,-0.24159 0.9297,0.85841 1.2219,2.84364 1.1864,8.28311 -0.069,10.62966 -0.7899,1.47592 -0.7355,2.40052 0.2081,3.53751 1.5632,1.88348 9.5275,1.36307 20.8613,-1.36314 z m -27.3072,1.53426 c 5.1688,-2.93484 6.3072,-4.56456 6.3072,-9.02942 0,-4.64766 -1.7726,-4.98244 -6.6567,-1.25718 -4.0331,3.07624 -6.6735,7.83281 -5.8275,10.49829 0.7837,2.46897 1.4991,2.44445 6.177,-0.21169 z m -7.6202,1.52685 c -2.4388,-3.10037 -2.6169,-6.57092 -0.6269,-12.21139 1.8611,-5.27478 7.019,-28.785219 9.1328,-41.628229 2.2192,-13.48365 2.5877,-14.23563 8.158,-16.64805 6.3761,-2.76138 29.8904,-8.85649 34.2125,-8.86816 2.8428,-0.008 4.258,0.8523 8.051,4.89237 9.37,9.98035 23.4491,34.503909 22.8138,39.737999 -0.2791,2.29874 -2.1955,3.44257 -17.3138,10.33388 l -17,7.74903 -0.3002,5.64854 c -0.3413,6.42105 -1.8426,8.00065 -8.6998,9.15327 -2.2,0.3698 -6.2192,1.30308 -8.9315,2.07398 -6.6332,1.88527 -14.4556,1.81382 -16.6276,-0.15188 -1.559,-1.41084 -2.0254,-1.36527 -5.0788,0.49626 -4.3638,2.66043 -5.2969,2.59123 -7.7895,-0.57762 z m 22.061,27.74877 c 23.6794,-10.61139 42.2937,-19.31014 55.671,-26.01595 l 12.1954,-6.11338 0,-9.78219 c 0,-16.26302 -3.5317,-25.953229 -16.9545,-46.519919 -13.2408,-20.28787 -17.3952,-23.3308 -37.5455,-27.50062 -17.526,-3.62676 -29.3637,-4.56998 -40.2942,-3.21064 -11.2451,1.39845 -25.8602,4.27587 -34.018,6.69746 l -5.6878,1.68837 3.5,0.7699 c 1.925,0.42344 11.2901,1.98088 20.8115,3.46098 11.009,1.71136 18.0321,3.27741 19.291,4.30158 1.9641,1.59795 1.9523,1.75852 -1.5107,20.6105 -3.4965,19.033989 -7.8804,37.356679 -11.3209,47.315609 l -1.8364,5.31561 3.7866,3.98056 c 3.8461,4.04307 15.7789,26.80277 15.7789,30.09541 0,0.98605 0.6226,1.79281 1.3836,1.79281 0.761,0 8.2985,-3.09874 16.75,-6.88609 z m 16.8682,-1.66896 c 43.6463,-21.04713 53.9637,-26.81276 51.8187,-28.95777 -0.3348,-0.33481 -6.0859,2.13686 -12.7802,5.49261 -13.9622,6.99901 -33.7382,16.25003 -55.9973,26.19495 -8.5013,3.79823 -15.6253,7.07419 -15.831,7.27992 -0.2057,0.20572 0.1227,1.30234 0.7299,2.43692 l 1.1041,2.06286 5.2288,-2.31243 c 2.8758,-1.27183 14.453,-6.76051 25.727,-12.19706 z m -414.545341,9.80505 c -0.3865,-3.7125 -0.84226,-6.90744 -1.01279,-7.09987 -1.0009,-1.12938 -13.8732,-5.09633 -14.41145,-4.44128 -0.35755,0.43513 -0.39857,4.16615 -0.0911,8.29115 l 0.55894,7.5 4.5,1.16952 c 2.475,0.64324 5.99831,1.20574 7.82959,1.25 l 3.32959,0.0805 -0.70273,-6.75 z M 447.9472,174.26794 c 24.985,-11.90674 54.0375,-27.04033 56.2334,-29.29221 0.825,-0.84603 -7.05,2.72442 -17.5,7.93434 -10.45,5.20992 -28.225,13.84236 -39.5,19.18321 -19.1481,9.07025 -25.2796,12.53183 -22.1976,12.53183 0.677,0 11.0109,-4.66073 22.9642,-10.35717 z m 55.9039,1.55108 c 3.4964,-4.52478 16.0525,-34.80418 14.9073,-35.9494 -0.2782,-0.27818 -3.2635,1.24051 -6.6341,3.37486 -5.9065,3.74022 -6.2624,4.20812 -9.8363,12.93151 -3.3887,8.27138 -10.0346,21.27692 -14.0099,27.41645 -1.4497,2.23895 -0.8635,2.07178 6.3332,-1.80609 4.362,-2.35038 8.5198,-5.03568 9.2398,-5.96733 z M 54.598869,188.37511 c 0.251,-1.2375 0.67209,-4.78939 0.93576,-7.89309 l 0.47941,-5.64309 -5.16672,-2.00976 c -2.84169,-1.10537 -5.90784,-2.30883 -6.81366,-2.67436 -1.47415,-0.59486 -1.59203,0.20806 -1.12346,7.65286 0.28792,4.57459 0.7289,8.54244 0.97995,8.81744 0.53313,0.58397 8.4464,3.86196 9.5214,3.94413 0.40203,0.0307 0.93632,-0.95663 1.18732,-2.19413 z m -43.41826,2.71482 c 0,-3.22531 -0.17531,-3.44136 -2.0000004,-2.46482 -2.26437,1.21185 -2.56777,3.03223 -0.8,4.8 2.0159704,2.01597 2.8000004,1.36209 2.8000004,-2.33518 z m 43,4.23272 c 0,-1.86151 -0.97328,-2.65244 -5.08213,-4.12996 -2.79516,-1.00512 -5.92771,-2.73513 -6.9612,-3.84446 -1.20529,-1.29372 -4.48801,-2.51027 -9.15483,-3.39271 -4.00167,-0.75666 -7.82073,-1.92805 -8.48682,-2.60308 -0.67851,-0.68762 -1.30057,-4.41547 -1.41462,-8.47733 -0.11195,-3.9875 -0.54132,-7.25 -0.95415,-7.25 -1.06798,0 -2.78979,5.33984 -3.53625,10.96689 l -0.63729,4.8041 6.36365,3.75837 c 7.17282,4.23628 25.44683,12.29773 28.11364,12.40213 1.17979,0.0462 1.75,-0.6817 1.75,-2.23395 z M 403.1744,195.07971 c 14.808,-6.5655 20.1529,-9.40814 19.5436,-10.39408 -0.5877,-0.95088 -31.5347,12.97342 -31.5364,14.18948 0,1.32599 1.5487,0.83527 11.9928,-3.7954 z m 135.2584,-49.9546 c 0.011,-2.2 0.2158,-2.98225 0.455,-1.73834 0.2392,1.24391 0.2301,3.04391 -0.02,4 -0.2503,0.95609 -0.446,-0.0617 -0.4349,-2.26166 z m 2.8763,2 c -0.4922,-10.19417 -4.4537,-15.44279 -8.216,-10.88564 -1.2262,1.48525 -1.2147,1.64132 0.088,1.18339 1.7932,-0.63061 5,0.85019 5,2.30886 0,0.56994 -0.6879,0.34837 -1.5287,-0.49237 -2.1851,-2.18513 -5.5857,-0.65596 -7.748,3.48406 -1.288,2.46622 -1.597,2.71419 -1.1233,0.9017 1.7791,-6.80775 6.1522,-11.07652 9.8813,-9.64552 2.6011,0.99813 4.6558,7.26989 4.2529,12.98135 l -0.3643,5.16417 -0.2414,-5 z m -1.8763,7 c 0.011,-2.2 0.2158,-2.98225 0.455,-1.73834 0.2392,1.24391 0.2301,3.04391 -0.02,4 -0.2503,0.95609 -0.446,-0.0617 -0.4349,-2.26166 z m -16.1525,6.91667 c 0.055,-1.60417 0.482,-4.04167 0.9493,-5.41667 0.573,-1.68596 0.6616,-0.87192 0.2722,2.5 -0.6497,5.62515 -1.3731,7.35254 -1.2215,2.91667 z m 18.1999,0.58333 c 0,-3.025 0.1875,-4.2625 0.4166,-2.75 0.2292,1.5125 0.2292,3.9875 0,5.5 -0.2291,1.5125 -0.4166,0.275 -0.4166,-2.75 z m -1.1417,8 c 0,-1.375 0.2269,-1.9375 0.5044,-1.25 0.2774,0.6875 0.2774,1.8125 0,2.5 -0.2775,0.6875 -0.5044,0.125 -0.5044,-1.25 z m -15.3053,17.34088 c -2.2962,-0.62444 -2.8463,-3.45579 -2.6891,-13.84088 0.075,-4.95 0.3262,-7.73582 0.5585,-6.19071 0.8514,5.66391 5.1753,0.13194 5.4464,-6.96813 0.2687,-7.03751 -0.058,-8.5977 -1.6684,-7.97953 -1.5432,0.59215 -2.1284,-0.85521 -0.7023,-1.73663 1.6421,-1.01484 3.371,1.21384 3.8788,5.00003 0.7045,5.25262 -1.2468,12.03614 -4.3569,15.14624 -2.2439,2.24389 -2.489,3.17283 -2.094,7.93582 0.48,5.78879 2.5773,8.96624 5.243,7.94333 2.1819,-0.83729 7.2626,-11.91101 9.0757,-19.78128 1.2437,-5.39881 1.396,-5.66679 0.9998,-1.75903 -0.8808,8.68582 -7.2179,22.18008 -10.5793,22.5274 -0.8057,0.0832 -2.2061,-0.0502 -3.1122,-0.29663 z m 4.8428,2.15987 c 2.501,-1.75171 6.0982,-7.23791 8.4987,-12.96144 0.9318,-2.22162 1.7094,-3.36431 1.728,-2.53931 0.094,4.1523 -8.4069,17 -11.2482,17 -0.6154,0 -0.1557,-0.67466 1.0215,-1.49925 z m -5.1113,-0.14219 c -0.5267,-1.37248 -0.3804,-1.43434 0.893,-0.37756 1.7352,1.44013 1.9158,2.019 0.6299,2.019 -0.4912,0 -1.1765,-0.73865 -1.5229,-1.64144 z m 2.9204,10.204 c 14.2585,-5.95759 22.9055,-54.04749 13.2272,-73.56256 -1.2274,-2.475 -2.9108,-4.62462 -3.7408,-4.77693 -1.9313,-0.35441 -6.7411,7.00862 -8.0136,12.2676 -8.2146,33.94939 -19.2707,52.86441 -35.9747,61.54643 -2.9866,1.55234 -2.8482,1.60845 9.7794,3.96272 12.0571,2.24792 20.2433,2.43425 24.7225,0.56274 z M 177.18061,110.3239 c 0,-0.67808 12.23125,-4.80087 12.73839,-4.29373 0.21515,0.21514 -2.00048,1.17757 -4.92361,2.13871 -2.92313,0.96115 -5.87728,1.95514 -6.56478,2.20888 -0.6875,0.25373 -1.25,0.22949 -1.25,-0.0539 z m -8.5,2.91453 c 1.65,-0.75133 4.125,-1.64206 5.5,-1.97938 2.00784,-0.49259 1.90941,-0.3444 -0.5,0.75274 -1.65,0.75133 -4.125,1.64206 -5.5,1.97938 -2.00784,0.49259 -1.90941,0.3444 0.5,-0.75274 z m -16.5,6.09906 c 0.7227,-0.77483 11.31493,-4.72137 12.5,-4.65734 0.55,0.0297 -1.025,0.87044 -3.5,1.86829 -5.50119,2.21792 -9.67318,3.5108 -9,2.78905 z M 124.34238,129.13 c 0.83934,-0.83933 26.11398,-9.56247 26.5226,-9.15385 0.35321,0.3532 -25.11546,9.64896 -26.43638,9.64896 -0.31973,0 -0.35853,-0.2228 -0.0862,-0.49511 z m -25.061511,9.06152 c 0.801251,-0.80126 20.203491,-7.59599 20.589101,-7.21038 0.20967,0.20966 -4.16839,2.01533 -9.72902,4.01259 -9.82245,3.52801 -11.761171,4.09887 -10.860081,3.19779 z m -15.10026,5.56973 c 0,-0.72633 13.02578,-5.44369 13.55901,-4.91047 0.18936,0.18937 -2.78395,1.51632 -6.60736,2.94878 -3.82341,1.43246 -6.95165,2.31523 -6.95165,1.96169 z m 208.044591,22.5619 c 0.8872,-1.01094 35.1868,-16.79997 35.5994,-16.38735 0.208,0.20798 -7.1643,3.86833 -16.3829,8.13411 -17.9907,8.32497 -20.0589,9.21323 -19.2165,8.25324 z m -13.1397,5.71828 c 6.2727,-2.99192 11.5664,-5.2784 11.7637,-5.08108 0.4295,0.42949 -21.27211,10.69628 -22.39079,10.59284 -0.42779,-0.0396 4.35441,-2.51985 10.62709,-5.51176 z m -31.90489,14.99311 c 0,-0.47517 4.4207,-2.57868 15.75,-7.49433 2.3375,-1.01421 4.25,-1.62934 4.25,-1.36695 0,0.43616 -4.37088,2.52187 -15.75,7.51565 -2.3375,1.02582 -4.25,1.63135 -4.25,1.34563 z m -1.37499,16.99193 c 6.53124,-3.07925 15.02499,-7.06874 18.87499,-8.86553 9.65409,-4.50555 71.32749,-33.49729 85.99999,-40.4273 6.6,-3.11727 16.3474,-7.67943 21.6609,-10.13814 5.3135,-2.45872 9.4423,-4.69539 9.1751,-4.97039 -0.2672,-0.275 -5.3883,-1.20203 -11.3802,-2.06006 l -10.8945,-1.56006 -12.7806,5.903 c -14.3917,6.64704 -18.2329,8.24091 -16.7807,6.96286 0.55,-0.48404 6.7564,-3.52137 13.7921,-6.74961 7.3635,-3.37871 12.2437,-6.14379 11.5,-6.51583 -0.7107,-0.35546 -5.5671,-1.20812 -10.7921,-1.8948 -19.7159,-2.5911 -111.54855,-19.80323 -134.99999,-25.30296 -7.425,-1.74127 -14.50952,-3.12748 -15.74338,-3.08045 -1.23386,0.047 -1.99481,-0.3167 -1.69099,-0.80829 0.30382,-0.49159 -0.77301,-0.8938 -2.39295,-0.8938 -3.37807,0 -70.95751,22.06185 -103.672681,33.84478 -40.73192,14.6703 -39.81636,14.27564 -35.75,15.41025 0.9625,0.26856 13.225,4.10259 27.25,8.52008 14.025,4.41749 31.800001,9.90969 39.500001,12.20489 12.112,3.61033 78.13827,23.98037 106.5,32.85675 5.225,1.63527 9.78125,3.01598 10.12501,3.06824 0.34375,0.0523 5.96875,-2.42438 12.5,-5.50363 z m 209.76458,-1.71878 c 23.0415,-12.0697 27.3135,-14.66482 29.8516,-18.13401 2.5576,-3.49589 17.7428,-33.0817 17.7546,-34.59173 0,-0.29874 -17.4333,8.13251 -38.7458,18.7361 l -38.75,19.27927 -1.164,14.56861 c -0.6402,8.01274 -1.4156,15.22429 -1.7232,16.02569 -0.6677,1.74 -3.3426,3.0363 32.7768,-15.88393 z m -301.40983,28.70884 c 3.78977,-1.51637 4.01983,-1.84599 4.01313,-5.75 -0.004,-2.27778 -0.29398,-7.17892 -0.6446,-10.89142 -0.58232,-6.16572 -0.83417,-6.75 -2.90958,-6.75 -2.03557,0 -2.48259,0.9108 -4.29445,8.75 -3.42645,14.8248 -3.58219,16.25 -1.77579,16.25 0.87508,0 3.40016,-0.72386 5.61129,-1.60858 z M 91.576869,203.03487 c 0.84679,-2.20671 -0.12126,-3.41547 -2.70528,-3.37796 -2.17548,0.0316 -2.17683,0.0431 -0.19098,1.63454 1.62436,1.3017 1.67131,1.48944 0.25,0.99958 -1.97203,-0.67967 -2.44105,0.88857 -0.5,1.6718 2.097,0.84616 2.51249,0.72361 3.14626,-0.92796 z m 8.603741,1.53122 c 0,-1.06754 -0.413201,-1.94098 -0.918211,-1.94098 -0.50502,0 -1.68195,-0.29307 -2.6154,-0.65127 -1.39596,-0.53568 -1.56895,-0.24722 -0.97466,1.62523 0.49338,1.55448 0.3714,2.05948 -0.3846,1.59225 -0.60892,-0.37633 -1.10713,-0.41819 -1.10713,-0.093 0,0.84415 4.35316,2.37842 5.25,1.85036 0.4125,-0.24288 0.750001,-1.31505 0.750001,-2.38259 z m 6.55887,4.52722 c -1.69265,-1.28026 -1.72465,-1.4682 -0.25,-1.4682 2.13409,0 2.20666,-1.58819 0.10934,-2.39301 -2.52572,-0.96921 -3.15183,-0.73364 -3.70858,1.39537 -0.54285,2.07586 1.48728,3.93803 4.29037,3.93543 1.13346,-0.001 1.02567,-0.36016 -0.44113,-1.46959 z m -8.558871,0.85588 c -4.675,-1.91223 -9.5125,-3.88277 -10.75,-4.37899 -2.259,-0.90582 -2.94362,-3.97398 -1.64301,-7.3633 0.72564,-1.891 1.38905,-1.94484 5.07791,-0.4121 1.54831,0.64333 6.4151,2.36751 10.815101,3.8315 7.63723,2.5411 8.01443,2.80844 8.31823,5.89563 0.29193,2.96655 -1.17686,6.2438 -2.69067,6.00361 -0.34516,-0.0548 -4.45256,-1.66412 -9.127561,-3.57635 z m 47.413171,18.42592 c 0.35215,-2.3375 1.64385,-8.32466 2.87045,-13.3048 l 2.23019,-9.0548 -10.0069,-2.838 c -9.49126,-2.69176 -66.590251,-21.48519 -76.791401,-25.27495 -4.09837,-1.52256 -4.91149,-1.57241 -5.67015,-0.34762 -0.99484,1.60607 -2.43813,18.30975 -1.89631,21.94661 0.31849,2.13782 4.2819,3.7718 42.85095,17.66598 23.375001,8.42065 43.236411,15.34341 44.136461,15.38392 1.17651,0.053 1.8164,-1.12084 2.27671,-4.17634 z m 261.63642,-0.77485 c 9.3958,-4.71002 12.2496,-6.61958 13.0764,-8.75 1.1922,-3.0719 3.5603,-28.87212 2.7266,-29.70584 -0.2965,-0.29655 -7.3522,2.50279 -15.6793,6.22076 -12.0426,5.37693 -15.0337,7.09816 -14.62,8.41317 1.5451,4.91179 2.2776,13.86251 1.7483,21.36282 -0.3293,4.66617 -0.2999,8.48394 0.065,8.48394 0.3652,0 6.0724,-2.71118 12.6828,-6.02485 z m -94.279,7.95497 c 1.688,-0.58843 3.316,-1.71343 3.6179,-2.5 0.6458,-1.68316 0.44,-1.7238 -2.5914,-0.51147 -1.2634,0.50525 -3.1131,1.17707 -4.1105,1.49293 -0.9973,0.31586 -1.5333,1.02747 -1.191,1.58136 0.7621,1.23304 0.5487,1.23618 4.275,-0.0628 z m 71.2477,-21.78872 c -1.2321,-6.66527 -4.1681,-11.54659 -7.8663,-13.07845 -1.5567,-0.64479 -5.4902,-1.03524 -8.7412,-0.86765 l -5.9108,0.3047 4.192,2.24077 c 7.609,4.06719 13.2487,14.20463 15.443,27.75923 l 1.2952,8 1.2896,-9.4987 c 0.9213,-6.78596 1.0065,-11.0298 0.2985,-14.8599 z m -199.51787,18.6086 c 0.35438,-2.8875 0.49926,-7.65766 0.32196,-10.60035 l -0.32238,-5.35036 -11,-3.36467 c -6.05,-1.85057 -11.731,-3.38041 -12.62445,-3.39965 -1.41939,-0.0306 -1.56222,1.13271 -1.13144,9.21503 0.27116,5.0875 0.79271,9.58055 1.159,9.98455 0.65171,0.71881 20.93734,8.67318 22.27493,8.73441 0.37293,0.0171 0.968,-2.33146 1.32238,-5.21896 z m 120.91207,5.64526 c 0.8668,-0.33264 1.3271,-1.00764 1.0228,-1.5 -0.8389,-1.35736 -2.153,-1.07321 -2.7969,0.60478 -0.6432,1.67616 -0.4781,1.75947 1.7741,0.89522 z m -9.1435,-13.08821 c 0.973,-0.25354 2.323,-0.23687 3,0.0371 0.6771,0.27393 -0.119,0.48137 -1.769,0.46099 -1.65,-0.0204 -2.2039,-0.2445 -1.231,-0.49804 z m 5.8977,12.69436 c 0.1833,-0.54925 0.1083,-3.81175 -0.1667,-7.25 -0.4503,-5.62961 -0.7339,-6.28448 -2.8517,-6.58425 -1.2934,-0.18308 -3.4309,-0.062 -4.75,0.26905 -2.1586,0.54177 -2.3983,1.13867 -2.3983,5.97159 0,5.30422 0.041,5.37735 3.3658,6.00108 1.8511,0.34728 4.2136,0.35491 5.25,0.017 1.5653,-0.51046 1.6303,-0.42745 0.3842,0.49048 -0.8756,0.64502 -3.1136,0.84692 -5.3765,0.48506 -2.7143,-0.43404 -3.6711,-0.28732 -3.191,0.48938 0.8529,1.38001 9.2785,1.47579 9.7342,0.11065 z m 117.3333,-11.00176 c 43.246,-22.90603 77.0405,-41.7924 76.2307,-42.60221 -0.2126,-0.21259 -12.5444,6.02352 -27.404,13.85803 -14.8595,7.83451 -37.8775,19.86957 -51.1511,26.74457 -17.9179,9.28053 -24.1391,12.96593 -24.1547,14.30902 -0.012,0.99496 0.3166,1.61175 0.7291,1.37065 0.4125,-0.2411 12,-6.39712 25.75,-13.68006 z m -106.3915,12.75039 c 0.529,-0.9625 0.6085,-1.74311 0.1767,-1.73469 -1.7135,0.0334 -3.0089,1.62653 -3.6466,4.48469 -0.6425,2.87996 -0.6057,2.91998 0.9194,1 0.8737,-1.1 2.0214,-2.7875 2.5505,-3.75 z m 92.818,-1.61705 c 77.1306,-41.26605 90.3869,-48.79605 96.3421,-54.72549 9.2124,-9.17247 17.2655,-25.59578 21.5908,-44.03125 3.283,-13.99312 2.3812,-24.6781 -2.3442,-27.77428 l -2.2698,-1.48723 1.8773,6.03174 c 3.7586,12.0764 2.1382,21.43752 -7.8144,45.14421 -5.2794,12.57538 -11.0577,20.91378 -17.9174,25.85569 -8.1624,5.88046 -101.753,56.85366 -104.3875,56.85366 -0.5873,0 -0.679,-1.85955 -0.2343,-4.75 0.402,-2.6125 0.7309,-11.275 0.7309,-19.25 0,-13.53289 -0.1732,-14.86683 -2.5972,-20 -3.4826,-7.37501 -9.4607,-13.32062 -15.443,-15.35899 -5.8194,-1.98288 -15.5393,-2.12334 -21.5594,-0.31155 -7.3839,2.22223 -44.5119,19.72596 -48.0797,22.66681 -3.2823,2.70554 -7.3407,9.56405 -7.9907,13.50373 -0.2375,1.43925 0.3009,2.08959 1.92,2.31955 1.7777,0.25248 2.2508,-0.16734 2.2538,-2 0,-3.21291 3.1673,-8.08554 7.2859,-11.22693 1.903,-1.45148 13.0788,-6.98306 24.8351,-12.29241 18.008,-8.13271 22.3666,-9.7231 27.6686,-10.09605 11.688,-0.82214 22.1801,5.7638 26.1696,16.42667 2.6384,7.05175 2.697,20.51322 0.1431,32.86917 -1.0231,4.95 -1.664,9.3375 -1.4242,9.75 1.117,1.92099 5.8937,0.0959 21.2446,-8.11705 z m -97.8432,-51.52859 c 0.2292,-0.2176 17.7417,-8.36913 38.9167,-18.1145 21.175,-9.74537 41.1245,-19.0425 44.3322,-20.66028 3.2078,-1.61777 6.2289,-2.80375 6.7137,-2.6355 0.9252,0.3211 -4.422,2.85733 -56.8368,26.95823 -29.1752,13.41512 -34.4635,15.72225 -33.1258,14.45205 z m -55.58329,24.61584 c 0.93044,-0.89818 50.18349,-22.8037 53.49999,-23.79438 3.2404,-0.96792 -15.6547,7.9384 -31.14727,14.68146 -22.74998,9.90184 -23.47705,10.19826 -22.35272,9.11292 z m 5.59812,33.42434 c 0.87074,-0.98137 13.17627,-5.70349 13.64401,-5.23574 0.34061,0.3406 -2.38392,1.48996 -12.24213,5.1644 -1.1,0.41 -1.73085,0.44211 -1.40188,0.0713 z m 11.06644,0.21206 c 4.58449,-1.72887 8.87213,-3.56258 9.52813,-4.0749 0.656,-0.51232 3.3211,-1.73939 5.9223,-2.72682 2.67,-1.01351 4.8338,-2.50505 4.9688,-3.4251 0.3405,-2.31991 -1.4769,-2.04276 -9.1345,1.39297 -3.70542,1.66251 -6.91156,2.84831 -7.12476,2.63512 -0.21319,-0.2132 3.33907,-1.98913 7.89396,-3.94652 7.7989,-3.3515 8.3006,-3.7527 8.6097,-6.88511 0.1805,-1.82943 0.9232,-4.00124 1.6504,-4.82624 0.7272,-0.825 2.0629,-3.3 2.9681,-5.5 2.4905,-6.05273 6.2924,-11.06155 10.5195,-13.85892 2.0922,-1.38455 13.4182,-6.92032 25.1689,-12.30173 l 21.3649,-9.78437 10.5,-0.0275 c 9.7731,-0.0256 10.867,0.17585 15.8024,2.90999 3.1596,1.75034 6.7024,4.84449 8.7664,7.65624 l 3.4639,4.71876 5.9995,-2.90624 c 3.2998,-1.59843 6.1664,-2.90624 6.3702,-2.90624 0.9701,0 19.5976,-9.11375 19.5976,-9.58839 0,-0.2987 -0.4402,-1.36552 -0.9781,-2.3707 -0.907,-1.69468 -1.963,-1.39897 -14.5196,4.06574 -7.4479,3.24134 -14.0952,5.88645 -14.7719,5.87802 -0.6768,-0.008 5.0059,-2.6823 12.6282,-5.94192 7.6222,-3.25963 14.0669,-6.13491 14.3215,-6.38951 0.8034,-0.80346 -5.6213,-15.87258 -9.7305,-22.82278 -6.7715,-11.45292 -8.0963,-12.61342 -14.4866,-12.68975 -3.0433,-0.0363 -5.9015,-0.29367 -6.3516,-0.57183 -0.7027,-0.43428 -45.4256,20.27318 -113.11139,52.37246 -10.175,4.82538 -22.6625,10.70287 -27.75,13.06108 -9.36594,4.34139 -11.2453,5.99758 -6.80576,5.99758 5.61276,0 10.28485,8.67915 14.53441,27 1.19825,5.16594 3.36701,9 5.0909,9 0.41777,0 4.51052,-1.41453 9.09501,-3.1434 z m -53.15745,-0.1066 c 0.004,-1.7875 0.29362,-6.28364 0.6438,-9.99143 l 0.6367,-6.74143 -5.39381,-2.37759 c -7.66971,-3.38081 -19.73184,-7.13485 -20.48976,-6.37692 -0.35288,0.35287 -0.86623,4.38898 -1.14078,8.96913 -0.40053,6.68162 -0.19774,8.57773 1.026,9.59334 1.43858,1.19392 22.35185,10.03623 23.96074,10.13081 0.4125,0.0242 0.7532,-1.41841 0.75711,-3.20591 z m 1.80176,7.06967 c 0.25241,-2.1763 -0.0325,-2.57395 -1.55822,-2.17496 -2.12667,0.55613 -23.80987,-7.96488 -26.56253,-10.43849 -1.56065,-1.40244 -1.76863,-2.98577 -1.5,-11.41939 0.17153,-5.38515 -0.0256,-9.79021 -0.43812,-9.78901 -0.4125,0.001 -0.75,4.08176 -0.75,9.06792 0,9.36131 -0.98363,12.93426 -3.5608,12.93426 -0.81974,0 -6.65812,-1.98387 -12.97418,-4.40859 l -11.48376,-4.40859 -3.61742,1.75954 -3.61742,1.75954 11.87679,4.22954 c 6.53223,2.32624 20.20179,6.70198 30.37679,9.72386 10.175,3.02188 18.95,5.65531 19.5,5.85207 2.34753,0.83983 4.02081,-0.20389 4.30887,-2.6877 z m 5.19113,-30.82757 c 3.575,-0.39817 7.79991,-1.24687 9.38869,-1.886 1.58878,-0.63913 3.07567,-0.97508 3.3042,-0.74655 1.0135,1.0135 -9.53487,3.62685 -14.12103,3.49848 l -5.07186,-0.14198 6.5,-0.72395 z m 11,31.0079 c 3.41917,-1.09501 6.04822,-1.09501 3.5,0 -1.1,0.47269 -2.9,0.8462 -4,0.83003 -1.60779,-0.0236 -1.50973,-0.1864 0.5,-0.83003 z m -6.25,1.33772 c 0.6875,-0.27741 1.8125,-0.27741 2.5,0 0.6875,0.27741 0.125,0.50439 -1.25,0.50439 -1.375,0 -1.9375,-0.22698 -1.25,-0.50439 z m 12.85863,1.69457 c 8.19026,-2.82776 15.30412,-5.55209 15.80859,-6.05406 1.86505,-1.8558 -2.45103,-2.12773 -7.44481,-0.46906 -2.80609,0.93203 -5.29236,1.50421 -5.52506,1.27151 -0.2327,-0.2327 2.06163,-1.20632 5.09851,-2.16361 l 5.5216,-1.74054 -0.61511,-3.68826 c -1.12969,-6.77378 -6.41318,-22.91931 -8.19374,-25.03882 -1.20106,-1.4297 -7.14831,-3.7122 -18.75861,-7.19937 -9.35,-2.80828 -33.425,-10.20641 -53.5,-16.44029 -20.075,-6.23387 -46.4,-14.32315 -58.5,-17.97618 -12.1,-3.65302 -33.308161,-10.21751 -47.129251,-14.58774 -13.8211,-4.37023 -25.90683,-7.94587 -26.85718,-7.94587 -1.76287,0 -15.50127,7.0913 -15.49888,8 0.002,0.88277 46.63257,17.94307 73.98531,27.06851 28.260541,9.42831 80.228211,25.19007 103.818031,31.48795 7.87492,2.1024 15.04882,4.35691 15.942,5.01002 1.39025,1.01657 1.587,3.25597 1.36715,15.56049 -0.31108,17.41091 -0.56371,17.89284 -8.35709,15.94268 -9.66675,-2.41892 -43.73652,-13.12231 -52.89823,-16.61855 -4.97388,-1.8981 -10.19906,-3.4511 -11.61151,-3.4511 -1.41245,0 -18.36135,-5.66867 -37.66422,-12.59705 -19.302871,-6.92837 -39.697161,-14.24015 -45.320641,-16.2484 -5.62349,-2.00824 -10.34849,-4.25215 -10.50001,-4.98647 -0.15151,-0.73432 -4.12467,-2.82148 -8.82923,-4.63814 -9.66209,-3.731 -19.45792,-8.51663 -25.16874,-12.29587 -3.05175,-2.01955 -4.11115,-2.29529 -5.0679,-1.31904 -1.73786,1.77325 2.68171,5.08265 14.29039,10.70073 17.27501,8.36033 26.5687,12.16488 75.135591,30.75822 26.19935,10.03016 65.04693,22.73274 93.86441,30.69227 6.325,1.74699 12.85,3.55152 14.5,4.01005 5.46135,1.51772 13.04507,0.15684 28.10863,-5.04401 z m -66.10863,1.5171 c -3.85,-1.2924 -6.55,-2.3862 -6,-2.43066 0.55,-0.0445 4.375,0.99905 8.5,2.31891 4.125,1.31986 6.825,2.41366 6,2.43066 -0.825,0.017 -4.65,-1.02651 -8.5,-2.31891 z m 13.5,3.95061 c -1.925,-0.74131 -2.825,-1.34784 -2,-1.34784 0.825,0 3.075,0.60653 5,1.34784 1.925,0.74131 2.825,1.34784 2,1.34784 -0.825,0 -3.075,-0.60653 -5,-1.34784 z m 7.8125,1.81689 c 0.72187,-0.28887 1.58437,-0.25335 1.91667,0.0789 0.33229,0.33229 -0.25834,0.56864 -1.3125,0.52522 -1.16495,-0.048 -1.4019,-0.28494 -0.60417,-0.60416 z m 4.6875,1.68311 c -1.26064,-0.54172 -1.44548,-0.85943 -0.5,-0.85943 0.825,0 2.4,0.38674 3.5,0.85943 1.26064,0.54172 1.44548,0.85943 0.5,0.85943 -0.825,0 -2.4,-0.38674 -3.5,-0.85943 z m 6.76903,1.30701 c 0.97297,-0.25354 2.32297,-0.23687 3,0.0371 0.67703,0.27393 -0.11903,0.48137 -1.76903,0.46099 -1.65,-0.0204 -2.20394,-0.2445 -1.23097,-0.49804 z m 6.49263,0.98573 c 1.24391,-0.23919 3.04391,-0.23011 4,0.0202 0.95609,0.25029 -0.0617,0.446 -2.26166,0.4349 -2.2,-0.0111 -2.98225,-0.21589 -1.73834,-0.45508 z m 6.93965,1.06738 c 1.25668,-0.31541 2.07227,-0.91746 1.81243,-1.33789 -0.25985,-0.42044 1.2211,-0.99158 3.291,-1.26921 4.63599,-0.62182 31.47025,-11.07798 31.92407,-12.43944 0.18088,-0.54266 -7.4466,1.63906 -16.94996,4.84826 -9.50337,3.20921 -19.01232,5.83565 -21.13101,5.83654 -6.90605,0.003 -55.21157,-13.94467 -87.64784,-25.30714 -50.753491,-17.77906 -105.732261,-40.38 -115.982081,-47.67851 l -3.01792,-2.14896 0,3.44565 c 0,1.89511 0.5625,3.90878 1.25,4.47482 0.6875,0.56605 11.62274,5.08649 24.30055,10.04543 33.6367,13.15705 75.316001,29.37261 87.949451,34.21723 12.55758,4.81553 34.26584,11.92995 36.5,11.9621 1.12225,0.0161 1.18591,0.22103 0.25281,0.81356 -2.0047,1.27298 29.37011,13.40045 39.1969,15.15099 4.86907,0.86737 13.50845,0.57698 18.2516,-0.61347 z m 62.29868,-24.36012 c -0.825,-0.53316 -1.05,-0.96937 -0.5,-0.96937 0.55,0 1.675,0.43621 2.5,0.96937 0.825,0.53316 1.05,0.96937 0.5,0.96937 -0.55,0 -1.675,-0.43621 -2.5,-0.96937 z m 15.5101,2.01631 c -0.7376,-1.19337 0.1986,-3.01631 1.5489,-3.01631 1.2168,0 1.2247,2.70662 0.01,3.45729 -0.512,0.31644 -1.2135,0.11799 -1.559,-0.44098 z m -11.342,3.85613 c -0.1882,-4.06129 0.9596,-5.42364 5.3375,-6.33503 l 2.9944,-0.62337 -3,1.46176 c -1.65,0.80397 -2.4375,1.49831 -1.75,1.54298 1.4735,0.0957 1.7158,3.08122 0.25,3.08122 -0.55,0 -0.8875,-0.50625 -0.75,-1.125 0.1375,-0.61875 -0.2837,-1.32164 -0.9359,-1.56198 -0.7463,-0.27499 -1.3327,0.97612 -1.5819,3.375 l -0.396,3.81198 -0.1681,-3.62756 z m -3.6681,3.12756 c -0.3991,-0.64585 -0.2757,-1.62426 0.2743,-2.17426 0.6666,-0.66667 1.2419,-0.60858 1.7257,0.17426 0.3992,0.64585 0.2758,1.62426 -0.2742,2.17426 -0.6667,0.66667 -1.242,0.60858 -1.7258,-0.17426 z m 5.5,0.5 c 0,-0.825 0.45,-1.5 1,-1.5 0.55,0 1,0.675 1,1.5 0,0.825 -0.45,1.5 -1,1.5 -0.55,0 -1,-0.675 -1,-1.5 z m -13.57239,1.38285 c -0.52314,-0.84645 -0.2436,-1.02622 0.90836,-0.58417 1.78103,0.68345 2.35483,-0.78942 0.63903,-1.64035 -0.56374,-0.27958 -0.45124,-0.39208 0.25,-0.25 1.5927,0.32271 1.6796,2.79013 0.1167,3.31112 -0.63715,0.21237 -1.49847,-0.1641 -1.91409,-0.8366 z m -5.1956,4.11715 c 0,-1.925 0.2058,-2.7125 0.45733,-1.75 0.25152,0.9625 0.25152,2.5375 0,3.5 -0.25153,0.9625 -0.45733,0.175 -0.45733,-1.75 z m 11.76799,3 c 0,-0.55 0.45,-1 1,-1 0.55,0 1,0.45 1,1 0,0.55 -0.45,1 -1,1 -0.55,0 -1,-0.45 -1,-1 z m -9.46344,-3.16492 c 0.25351,-3.1157 0.72628,-6.35644 1.05061,-7.20163 0.59769,-1.55755 7.12413,-4.25547 8.05133,-3.32828 0.2775,0.27748 -0.8466,0.80126 -2.4979,1.16395 -4.04301,0.888 -4.80198,2.02683 -6.02166,9.0356 l -1.04331,5.99528 0.46093,-5.66492 z m -6.3416,3.66492 c 0.0204,-1.65 0.2445,-2.20394 0.49804,-1.23097 0.25354,0.97297 0.23687,2.32297 -0.0371,3 -0.27393,0.67703 -0.48137,-0.11903 -0.46099,-1.76903 z m 8.30505,2.5 c -0.81551,-1.31952 0.38021,-3.19207 1.5691,-2.45729 1.21459,0.75067 1.20669,3.45729 -0.0101,3.45729 -0.51754,0 -1.2191,-0.45 -1.55902,-1 z m -5.268,1 c 0,-1.925 0.2058,-2.7125 0.45733,-1.75 0.25152,0.9625 0.25152,2.5375 0,3.5 -0.25153,0.9625 -0.45733,0.175 -0.45733,-1.75 z m 2,2 c 0,-1.925 0.2058,-2.7125 0.45733,-1.75 0.25152,0.9625 0.25152,2.5375 0,3.5 -0.25153,0.9625 -0.45733,0.175 -0.45733,-1.75 z m -3.03705,4.5 c 0.0204,-1.65 0.2445,-2.20394 0.49804,-1.23097 0.25354,0.97297 0.23687,2.32297 -0.0371,3 -0.27393,0.67703 -0.48137,-0.11903 -0.46099,-1.76903 z m -3.41088,-0.75 1.06316,-6.25 -0.51594,6.19948 -0.51594,6.19949 2.58452,-1.19949 c 1.42149,-0.65971 2.64024,-2.09948 2.70833,-3.19948 0.10443,-1.68712 0.19535,-1.72623 0.58113,-0.25 0.55868,2.13786 2.31067,2.32741 2.31067,0.25 0,-1.64862 1.55621,-2.02708 2.44198,-0.59388 0.95847,1.55083 4.34311,0.0181 4.96551,-2.24857 0.4882,-1.77783 0.7589,-1.89865 1.5381,-0.68651 1.4471,2.25103 2.0953,0.88061 3.6114,-7.63535 1.3824,-7.76502 1.3901,-7.77871 0.8617,-1.51817 -0.2933,3.47464 -0.7806,6.96214 -1.083,7.75 -0.7791,2.03036 0.471,1.82645 10.0483,-1.63903 7.6441,-2.76594 8.5541,-3.36995 9.1474,-6.0715 0.3624,-1.65 0.4671,-3.19186 0.2326,-3.42634 -0.2345,-0.23449 -3.7311,0.69769 -7.7703,2.0715 -8.8288,3.00288 -8.5313,2.98589 -8.7187,0.49785 -0.083,-1.1 0.2713,-2 0.7872,-2 0.5158,0 0.9378,0.63288 0.9378,1.4064 0,1.13514 0.6505,1.20675 3.3727,0.37128 2.5876,-0.79413 3.2588,-1.47076 2.8834,-2.9064 -0.5669,-2.16796 1.5383,-2.57078 2.3521,-0.45006 0.908,2.36627 6.3145,-0.001 5.6659,-2.48096 -0.2982,-1.14058 0,-1.94026 0.7177,-1.94026 0.7991,0 1.0122,-0.84782 0.613,-2.43871 -0.3367,-1.3413 -0.1422,-2.72917 0.4322,-3.08416 0.5744,-0.35499 0.7529,-1.56375 0.3967,-2.68613 -0.395,-1.24442 -0.1182,-2.3762 0.7093,-2.90053 2.201,-1.3946 -1.0074,-1.03165 -5.643,0.63837 -4.6092,1.66054 -6.6751,1.87684 -4.5,0.47116 1.2061,-0.77943 1.0463,-0.97237 -0.8157,-0.98469 -1.2737,-0.008 -3.1609,-0.46762 -4.1939,-1.02043 -1.4074,-0.75324 -3.2078,-0.41936 -7.1842,1.33234 l -5.3062,2.33746 3.5,1.82886 c 1.925,1.00587 2.9415,2.01748 2.2589,2.24802 -0.6825,0.23053 -1.9522,-0.29201 -2.8214,-1.1612 -2.1394,-2.13944 -5.1911,-1.9875 -11.33107,0.56416 l -5.16028,2.14451 3.13971,1.90937 c 1.72684,1.05016 2.89933,2.14975 2.60554,2.44354 -0.29379,0.2938 -1.84275,-0.4333 -3.44212,-1.61577 -2.09811,-1.5512 -3.65171,-1.96327 -5.57861,-1.47965 -1.46886,0.36866 -2.67066,1.11966 -2.67066,1.66888 0,0.54922 0.64628,0.75058 1.43618,0.44747 1.6606,-0.63724 6.60197,2.91339 6.48487,4.65971 -0.0509,0.75918 -0.26642,0.70848 -0.60671,-0.14273 -1.196,-2.99163 -3.64515,3.29442 -4.11085,10.55099 -0.31992,4.98499 -0.9248,7.60872 -1.83464,7.95786 -1.59985,0.61392 -0.8283,2.3113 1.05062,2.3113 0.81636,0 1.6977,-2.32954 2.3646,-6.25 z m -3.6159,11.72902 c 6.96749,-1.27463 16.98002,-2.88164 22.25002,-3.57112 5.27,-0.68948 9.5918,-1.51332 9.6041,-1.83075 0.012,-0.31743 0.9393,-1.70215 2.0601,-3.07715 l 2.038,-2.5 -1.6189,3.31387 -1.6189,3.31386 3.5925,-0.31386 3.5925,-0.31387 5.0153,-12.5 c 14.9658,-37.30107 33.844,-60.83194 53.7724,-67.02498 8.0424,-2.49931 12.6985,-2.4967 17.615,0.01 2.1413,1.09168 4.056,1.82214 4.2549,1.62323 0.8266,-0.82663 -9.1708,-8.60005 -12.4542,-9.68367 -9.1395,-3.01631 -29.5728,3.78195 -39.8553,13.26005 -4.8261,4.44853 -10.3901,13.03834 -10.4063,16.06551 0,0.9625 -0.4482,1.75 -0.9846,1.75 -2.2761,0 2.9082,-9.88717 8.1874,-15.61436 2.2234,-2.4121 3.782,-4.38564 3.4636,-4.38564 -1.6649,0 -17.6406,7.57976 -20.5109,9.73149 -3.2809,2.4595 -7.1844,7.80797 -7.1293,9.76851 0.015,0.55 0.6717,1.85024 1.4584,2.88941 1.3967,1.84495 1.5512,1.83743 6.5653,-0.31957 2.8242,-1.21494 5.3438,-2.0001 5.5991,-1.74481 0.2553,0.25529 -2.2634,1.52181 -5.5971,2.81448 -5.5993,2.17118 -6.0613,2.58569 -6.0613,5.43873 0,1.69864 0.258,3.34642 0.5733,3.66174 0.3153,0.31532 3.9226,-0.55278 8.0161,-1.9291 7.9009,-2.65646 10.581,-5.19564 8.3375,-7.89897 -0.6665,-0.80313 -0.9592,-1.71291 -0.6504,-2.02172 0.3088,-0.30882 1.0678,0.38462 1.6866,1.54097 0.919,1.71719 0.6453,3.06143 -1.4937,7.33565 -1.4405,2.87825 -3.4421,6.13319 -4.4482,7.23319 -4.1936,4.58533 -7.828,12.42601 -9.011,19.43985 -1.1205,6.64292 -1.4751,7.3522 -4.262,8.52397 -1.6718,0.70296 -3.6679,2.34868 -4.4357,3.65715 -1.3583,2.31497 -1.3795,2.31842 -0.7865,0.12804 0.5717,-2.11183 0.4352,-2.18326 -2.2083,-1.15543 -1.5497,0.60256 -8.9944,3.26978 -16.5437,5.92717 -7.54936,2.65738 -14.20665,5.12861 -14.79401,5.49162 -0.58736,0.36301 -2.20946,-0.0879 -3.60465,-1.0021 -2.44892,-1.6046 -2.88003,-1.51553 -12.45602,2.57339 -5.45562,2.32954 -9.91931,4.43093 -9.91931,4.66977 0,0.61358 8.42151,-0.57665 23.16817,-3.27441 z M 21.180609,213.62515 c -0.825,-0.53316 -1.05,-0.96937 -0.5,-0.96937 0.55,0 1.675,0.43621 2.5,0.96937 0.825,0.53316 1.05,0.96937 0.5,0.96937 -0.55,0 -1.675,-0.43621 -2.5,-0.96937 z m 5,2 c -0.825,-0.53316 -1.05,-0.96937 -0.5,-0.96937 0.55,0 1.675,0.43621 2.5,0.96937 0.825,0.53316 1.05,0.96937 0.5,0.96937 -0.55,0 -1.675,-0.43621 -2.5,-0.96937 z m 21.5,-0.89091 C 24.033899,205.28608 8.0104086,198.46202 8.4469486,198.02547 c 0.20289,-0.20289 4.1634704,1.2421 8.8012804,3.21108 4.63781,1.96899 17.43238,7.18066 28.43238,11.58149 11,4.40083 20.1875,8.18277 20.41667,8.40431 1.18948,1.1499 -2.95201,-0.30913 -18.41667,-6.48811 z m -10.28571,5.67507 c -4.00714,-1.67534 -7.11582,-3.21597 -6.90817,-3.42362 0.38234,-0.38234 14.66356,5.27581 15.54765,6.1599 1.03481,1.03481 -1.66449,0.17989 -8.63948,-2.73628 z m 10.78571,4.21584 c -0.825,-0.53316 -1.05,-0.96937 -0.5,-0.96937 0.55,0 1.675,0.43621 2.5,0.96937 0.825,0.53316 1.05,0.96937 0.5,0.96937 -0.55,0 -1.675,-0.43621 -2.5,-0.96937 z m 30.25071,2.27428 c -6.18711,-2.53497 -11.06994,-4.78838 -10.85074,-5.00759 0.37883,-0.37882 22.64026,8.44021 23.51616,9.3161 1.08966,1.08966 -2.32599,-0.0723 -12.66542,-4.30851 z m 14.74929,5.72572 c -0.825,-0.53316 -1.05,-0.96937 -0.5,-0.96937 0.55,0 1.675,0.43621 2.5,0.96937 0.825,0.53316 1.05,0.96937 0.5,0.96937 -0.55,0 -1.675,-0.43621 -2.5,-0.96937 z m -26.27573,-0.20387 c -8.12666,-3.3429 -14.61762,-6.23611 -14.42437,-6.42937 0.37574,-0.37574 29.64481,11.24461 30.51535,12.11515 1.24376,1.24376 -2.22362,0.0186 -16.09098,-5.68578 z m 41.480911,6.53465 c -6.21215,-2.51596 -11.129801,-4.73949 -10.928111,-4.94118 0.35315,-0.35316 22.789891,8.38582 23.639601,9.20748 1.13168,1.09434 -2.41305,-0.0954 -12.71149,-4.2663 z m 14.79482,5.66922 c -0.825,-0.53316 -1.05,-0.96937 -0.5,-0.96937 0.55,0 1.675,0.43621 2.5,0.96937 0.825,0.53316 1.05,0.96937 0.5,0.96937 -0.55,0 -1.675,-0.43621 -2.5,-0.96937 z m -26.772871,-0.18314 c -6.75008,-2.80745 -12.11459,-5.26273 -11.92114,-5.45619 0.37385,-0.37385 24.650791,9.26278 25.516801,10.12878 1.25757,1.25757 -2.16894,0.0799 -13.595661,-4.67259 z m 67.272871,16.16667 c -1.1,-0.48461 -9.76531,-3.90134 -19.25625,-7.59274 -9.49094,-3.69139 -17.09721,-6.87066 -16.90283,-7.06505 0.38225,-0.38225 36.00791,13.18458 38.59161,14.69631 1.98284,1.16017 0.22514,1.13233 -2.43253,-0.0385 z m 87,0.62979 c 1.65,-0.75133 4.125,-1.64206 5.5,-1.97938 2.00784,-0.49259 1.90941,-0.3444 -0.5,0.75274 -1.65,0.75133 -4.125,1.64206 -5.5,1.97938 -2.00784,0.49259 -1.90941,0.3444 0.5,-0.75274 z m -114.5,-0.54722 c -3.575,-1.53288 -10.67021,-4.49213 -15.76714,-6.57611 -5.09692,-2.08397 -9.10647,-3.94972 -8.91009,-4.14609 0.3694,-0.3694 28.77279,11.01972 31.58864,12.66633 3.10993,1.81858 -0.51232,0.79967 -6.91141,-1.94413 z m 34.5,2.39871 c -2.50062,-1.20445 -2.58385,-1.34326 -0.5,-0.83393 2.8335,0.69256 6.0185,2.31592 4.5,2.29361 -0.55,-0.008 -2.35,-0.66494 -4,-1.45968 z m 12.22918,4.8117 c -3.72395,-1.41251 -6.60031,-2.73872 -6.39191,-2.94712 0.20841,-0.2084 3.93027,0.95652 8.27082,2.58871 4.34055,1.6322 7.21691,2.9584 6.39191,2.94712 -0.825,-0.0113 -4.54687,-1.1762 -8.27082,-2.58871 z m 49.27082,-0.30982 c 7.425,-2.70712 13.87031,-4.80864 14.3229,-4.67006 0.95436,0.29222 -25.32556,9.75344 -26.8229,9.65669 -0.55,-0.0355 5.075,-2.27952 12.5,-4.98663 z m -37.5,4.03331 c -2.54822,-1.09501 0.0808,-1.09501 3.5,0 2.00973,0.64363 2.10779,0.8064 0.5,0.83003 -1.1,0.0162 -2.9,-0.35734 -4,-0.83003 z m 58.5,1 c 0.825,-0.53316 1.95,-0.96937 2.5,-0.96937 0.55,0 0.325,0.43621 -0.5,0.96937 -0.825,0.53316 -1.95,0.96937 -2.5,0.96937 -0.55,0 -0.325,-0.43621 0.5,-0.96937 z m -47.71983,0.26373 c 2.6291,-0.20668 6.6791,-0.20418 9,0.006 2.32091,0.20972 0.16983,0.37882 -4.78017,0.37577 -4.95,-0.003 -6.84892,-0.17464 -4.21983,-0.38131 z m -45.57184,-2.47747 c -8.13542,-3.31994 -14.59902,-6.2289 -14.36357,-6.46435 0.40479,-0.40479 26.45758,9.92435 29.65524,11.7574 3.72214,2.13371 -1.64538,0.2758 -15.29167,-5.29305 z m 18.29167,7.21374 c -0.825,-0.53316 -1.05,-0.96937 -0.5,-0.96937 0.55,0 1.675,0.43621 2.5,0.96937 0.825,0.53316 1.05,0.96937 0.5,0.96937 -0.55,0 -1.675,-0.43621 -2.5,-0.96937 z m 9.5,4 c -3.3,-1.56575 -5.55,-2.85912 -5,-2.87416 0.55,-0.015 3.7,1.26186 7,2.83758 3.3,1.57572 5.55,2.86909 5,2.87417 -0.55,0.005 -3.7,-1.27184 -7,-2.83759 z m 30.5,3.97664 c 3.96553,-0.56812 11.53764,-3.08342 19.41973,-6.45084 7.10586,-3.0358 13.08369,-5.35568 13.28408,-5.15529 0.20039,0.20039 -5.71913,2.94106 -13.15448,6.09038 -10.50428,4.44919 -14.91592,5.80641 -19.78408,6.0865 l -6.26525,0.36044 6.5,-0.93122 z m -20.5,0.0482 c -1.20754,-0.5039 0.37738,-0.61946 4,-0.29166 3.3,0.29861 6.1875,0.7058 6.41667,0.90487 0.85203,0.74014 -8.49165,0.19009 -10.41667,-0.61321 z m 43.48264,-4.18358 c 10.66888,-4.66569 19.59057,-9.06089 19.82598,-9.76711 0.31034,-0.93104 -0.22305,-1.08112 -1.94031,-0.54593 l -2.36831,0.73809 2.15148,-1.88315 c 2.83344,-2.48006 3.98508,-11.37517 1.47568,-11.3979 -1.08572,-0.01 -0.82156,-0.42578 0.79387,-1.25 2.84868,-1.45346 3.90261,-3.73526 1.72525,-3.73526 -0.83621,0 -8.41121,2.76404 -16.83333,6.14231 -25.01466,10.03384 -25.37734,10.13821 -35.31295,10.1626 -11.08225,0.0272 -14.87389,-1.03732 -42,-11.79176 -11.55,-4.57911 -39.225,-15.33442 -61.5,-23.90067 C 20.579849,200.93374 6.8326386,195.31162 5.5095786,192.65783 c -1.12539,-2.2573 -1.28672,-2.30636 -1.94484,-0.59133 -0.50916,1.32684 -0.0155,2.45419 1.69911,3.88041 1.56393,1.30088 1.79922,1.78631 0.66676,1.37563 -1.33338,-0.48354 -1.74675,-0.10644 -1.73635,1.58399 0.0317,5.15183 1.16123,6.52944 8.0517704,9.82023 3.78421,1.80726 6.69416,3.47214 6.46656,3.69974 -0.22759,0.22759 -3.14039,-0.94869 -6.47289,-2.61396 -5.9838204,-2.99015 -8.3113704,-2.89316 -3.6629004,0.15264 6.7088804,4.39582 46.8855304,21.62994 114.2950214,49.02783 41.18928,16.74096 75.99642,30.67299 77.3492,30.96006 1.35277,0.28707 6.75364,0.4037 12.00193,0.25918 l 9.54233,-0.26277 19.39797,-8.48307 z m 14.26736,8.46941 c 0.9625,-0.25152 2.5375,-0.25152 3.5,0 0.9625,0.25153 0.175,0.45733 -1.75,0.45733 -1.925,0 -2.7125,-0.2058 -1.75,-0.45733 z m -18,0 c 0.9625,-0.25152 2.5375,-0.25152 3.5,0 0.9625,0.25153 0.175,0.45733 -1.75,0.45733 -1.925,0 -2.7125,-0.2058 -1.75,-0.45733 z m 10,1 c 0.9625,-0.25152 2.5375,-0.25152 3.5,0 0.9625,0.25153 0.175,0.45733 -1.75,0.45733 -1.925,0 -2.7125,-0.2058 -1.75,-0.45733 z m 27.25,1.84297 c 3.09229,-1.32385 8.27559,-2.34626 6.49999,-1.28215 -0.825,0.49444 -3.075,1.17784 -4.99999,1.51867 -2.36102,0.41804 -2.84915,0.34107 -1.5,-0.23652 z m -4.6875,1.16325 c 0.72187,-0.28887 1.58438,-0.25335 1.91667,0.0789 0.33229,0.33229 -0.25834,0.56864 -1.3125,0.52522 -1.16495,-0.048 -1.4019,-0.28494 -0.60417,-0.60416 z m -9.3125,2.83675 c 3.09232,-1.32385 8.27556,-2.34626 6.5,-1.28215 -0.825,0.49444 -3.075,1.17784 -5,1.51867 -2.36102,0.41804 -2.84915,0.34107 -1.5,-0.23652 z m -44.77082,1.12287 c -3.72395,-1.41251 -6.59375,-2.74527 -6.37733,-2.96169 0.4023,-0.4023 13.65665,4.36035 14.51022,5.21392 0.93979,0.93978 -1.49523,0.26546 -8.13289,-2.25223 z m 24.77082,3.71953 c 2.75,-0.41495 7.62087,-1.52544 10.82415,-2.46776 3.20329,-0.94232 6.01924,-1.51822 6.25768,-1.27978 0.78644,0.78644 -15.25161,4.75411 -18.70212,4.62674 -2.73173,-0.10083 -2.42108,-0.2694 1.62029,-0.8792 z m -11.23097,0.31097 c 0.97297,-0.25354 2.32297,-0.23687 3,0.0371 0.67703,0.27393 -0.11903,0.48137 -1.76903,0.46099 -1.65,-0.0204 -2.20394,-0.2445 -1.23097,-0.49804 z m 12.73097,7.1208 c 11.49313,-3.3817 51.20709,-17.3548 52.59199,-18.50413 1.6872,-1.40026 5.408,-8.20052 5.408,-9.88384 0,-1.67148 -7.5972,-1.23006 -9.0547,0.5261 -0.7148,0.86126 -2.5968,2.23675 -4.1823,3.05665 -3.3255,1.71968 -19.06304,5.3642 -22.76299,5.27148 -1.375,-0.0345 1.775,-0.91223 7,-1.95061 11.35699,-2.257 17.61189,-4.48967 18.41089,-6.57173 0.4641,-1.20962 0.011,-1.42311 -2.1619,-1.01899 -1.5119,0.28117 -13.32399,2.16571 -26.24899,4.18787 -12.925,2.02215 -24.46959,4.13084 -25.65465,4.68596 -1.18505,0.55513 -2.63841,0.71034 -3.22967,0.34492 -0.59127,-0.36542 -4.05658,0.2565 -7.70069,1.38205 -3.64411,1.12555 -9.39076,2.05335 -12.77033,2.06177 -4.33629,0.0108 -5.70321,0.3006 -4.64466,0.98469 0.825,0.53316 1.24691,0.97627 0.93759,0.98469 -2.50462,0.0682 -35.79831,-12.83778 -75.43759,-29.24265 -9.9,-4.09716 -24.975,-10.2806 -33.500001,-13.74098 -8.525,-3.46039 -23.55231,-9.60124 -33.39402,-13.64634 -9.84172,-4.04509 -18.68107,-7.35472 -19.64302,-7.35472 -2.23456,0 -3.34942,2.82942 -1.83423,4.65512 3.2036,3.8601 93.610841,44.65916 140.371271,63.34687 9.35,3.73671 18.8,7.57267 21,8.52434 9.87787,4.27297 25.64805,5.09453 36.5,1.90148 z M 372.4529,248.62515 c 0,-2.475 0.1951,-3.4875 0.4334,-2.25 0.2384,1.2375 0.2384,3.2625 0,4.5 -0.2383,1.2375 -0.4334,0.225 -0.4334,-2.25 z m -3.9295,-0.5 c 0,-4.4 0.1794,-6.07561 0.3907,-3.72357 0.2112,2.35204 0.2082,5.95204 -0.01,8 -0.2149,2.04796 -0.3877,0.12357 -0.3841,-4.27643 z m 2.8521,10 c 0.02,-1.65 0.2445,-2.20394 0.4981,-1.23097 0.2535,0.97297 0.2368,2.32297 -0.037,3 -0.274,0.67703 -0.4814,-0.11903 -0.461,-1.76903 z m -6.5016,9.5 c 0.37,-1.375 1.2738,-4.525 2.0085,-7 1.1746,-3.95672 1.2856,-4.07674 0.9195,-0.99415 -0.229,1.92822 -1.1328,5.07822 -2.0085,7 -0.8768,1.92405 -1.2899,2.37077 -0.9195,0.99415 z m -28.5665,-0.64466 c -0.2117,-6.91726 3.5666,-17.28401 7.8662,-21.5837 6.9156,-6.91555 11.3294,-4.05316 11.6451,7.55181 l 0.1952,7.17655 -0.7248,-7.1663 c -1.0689,-10.56955 -3.976,-12.8404 -9.9755,-7.7922 -3.5545,2.99091 -6.9651,11.40497 -8.0902,19.9585 -0.6906,5.25053 -0.8051,5.48228 -0.916,1.85534 z m 2.9243,8.69581 c -1.1281,-1.12813 -2.0374,-2.61365 -2.0207,-3.30115 0.017,-0.6875 0.5408,-0.35 1.1645,0.75 1.5854,2.79581 2.9845,3.54978 5.3051,2.85889 3.3566,-0.99936 5.6477,-3.58623 8.7317,-9.85889 1.6224,-3.3 2.666,-4.72511 2.3191,-3.16691 -0.7361,3.30705 -4.4746,9.45784 -7.1711,11.79863 -3.2944,2.85978 -6.0806,3.16736 -8.3286,0.91943 z m 2.9489,-44.54217 c 1.925,-2.20494 2.6,-3.33398 1.5,-2.50898 -2.3332,1.74986 -4.2863,4.16662 -6.817,8.43528 -1.7559,2.96179 -1.7559,2.98106 0,0.5737 0.9994,-1.37006 3.392,-4.29506 5.317,-6.5 z m -7.6185,10.93908 c 0.3415,-0.88992 0.1739,-1.29132 -0.393,-0.94098 -0.5437,0.33602 -0.9885,1.0344 -0.9885,1.55194 0,1.43843 0.7167,1.12146 1.3815,-0.61096 z m 0.128,50.3808 c -1.518,-1.19412 -3.7873,-4.38812 -5.0427,-7.09778 -1.6363,-3.53184 -2.3989,-4.40351 -2.6935,-3.07887 -1.1359,5.10608 -1.8144,-11.28447 -0.7562,-18.2655 3.6326,-23.96407 17.9914,-43.38671 32.075,-43.38671 3.4821,0 4.7242,0.58582 7.5141,3.54397 3.3793,3.58308 6.4629,11.586 6.3143,16.38753 -0.044,1.41268 -0.6824,-0.20436 -1.4192,-3.5934 -2.2313,-10.26248 -6.4205,-15.27849 -12.7912,-15.31586 -3.692,-0.0217 -10.9434,2.9282 -12.2013,4.96347 -0.8677,1.40401 0.5242,1.21035 3.4912,-0.48571 4.0132,-2.29419 9.4166,-1.86179 12.8514,1.02844 2.7965,2.35306 7.0421,10.91137 5.9532,12.0003 -0.2663,0.26629 -1.0119,-1.27715 -1.6569,-3.42986 -1.7751,-5.92502 -6.1515,-10.09888 -10.5888,-10.09888 -4.8443,0 -10.6512,3.08712 -14.5232,7.72098 -7.0137,8.3936 -14.0357,27.6828 -14.0357,38.55536 0,5.88227 2.9382,13.64956 6.7663,17.88676 3.3256,3.6811 3.9968,3.99788 7.4805,3.53062 5.2896,-0.70949 11.5663,-6.13556 17.6922,-15.29447 2.7835,-4.16174 5.061,-7.13038 5.061,-6.59698 0,1.95409 -8.1149,13.04892 -12.5017,17.09251 -7.1148,6.5582 -12.1658,7.72785 -16.9888,3.93408 z m 14.1186,4.29081 c 3.1833,-1.87526 6.912,-5.39396 9.8319,-9.27832 5.8445,-7.77493 7.2933,-10.53105 10.1672,-19.34135 1.2558,-3.85 2.3034,-6.28295 2.328,-5.40655 0.072,2.56307 -3.7409,12.85833 -6.6021,17.82664 -5.4965,9.5444 -12.922,17.04307 -18.3531,18.53413 -1.375,0.37749 -0.1924,-0.67306 2.6281,-2.33455 z m -12.2786,1.95184 c -4.4664,-2.02805 -9.4094,-8.19586 -9.2593,-11.55364 0.062,-1.39206 0.3631,-1.07969 0.9703,1.00718 1.1616,3.99255 6.5033,9.06313 11.4586,10.87692 2.1895,0.80141 3.3059,1.47893 2.4809,1.50561 -0.825,0.0267 -3.3677,-0.79956 -5.6505,-1.83607 z m 7.76,12.69454 c 7.545,-3.81819 16.9068,-12.90317 21.8138,-21.16875 7.6954,-12.96251 13.2941,-34.72101 13.2766,-51.5973 -0.019,-18.08828 -5.1948,-29.567 -15.6432,-34.69136 l -5.3994,-2.64811 -5.5741,3.37827 c -18.0875,10.96217 -36.0099,38.61997 -48.2371,74.43913 -4.0143,11.75987 -7.3645,15.32266 -17.8461,18.97868 -1.8352,0.64013 -1.7528,0.82845 1,2.28535 6.2535,3.30967 24.2592,10.58622 30.5,12.32584 3.575,0.99653 9.4743,1.83894 13.1095,1.87203 5.5375,0.0504 7.6461,-0.46438 13,-3.17378 z m -21.7964,4.73014 c -6.7178,-1.46025 -19.8673,-6.45099 -33.3455,-12.65598 l -8.5324,-3.92808 -15.96759,5.64295 c -8.78218,3.10362 -18.8926,6.47245 -22.4676,7.48628 -7.2193,2.04734 -18.99374,2.477 -26.88228,0.98097 -15.36907,-2.91469 -159.806651,-65.71614 -171.943111,-74.76086 -2.9343,-2.18679 -3.28711,-2.9426 -3,-6.42664 l 0.32539,-3.94839 -9.02689,-3.7865 c -15.04191,-6.30962 -26.5304204,-12.2572 -27.9849604,-14.48777 -1.6631,-2.55039 -3.44595005,-10.16762 -3.66033005,-15.6388 -0.17409,-4.44292 2.34751005,-7.96355 7.67218005,-10.71181 3.9649504,-2.04646 7.5000004,-5.9151 7.5000004,-8.20775 0,-3.78013 4.15589,-15.12113 6.25916,-17.08063 3.36579,-3.13572 23.2403,-12.4535 43.71188,-20.49349 23.72526,-9.31784 55.589751,-20.17791 93.837661,-31.98181 36.12858,-11.149829 41.64016,-13.915799 42.47421,-21.315519 0.29485,-2.61584 1.34885,-5.25857 2.59383,-6.50354 1.93447,-1.93448 2.51782,-2.00893 7.51974,-0.95977 l 5.42259,1.1374 25.34046,-12.76587 c 13.93726,-7.02123 28.49047,-13.98702 32.34047,-15.47954 7.16869,-2.77904 31.30829,-7.24125 52.32059,-9.67144 9.994,-1.15586 11.9276,-1.70387 16.5,-4.67637 l 5.1794,-3.36709 19,0.2187 c 17.8145,0.20505 19.2652,0.0822 23.25,-1.96839 2.3375,-1.20291 4.25,-2.844381 4.25,-3.647721 0,-2.15598 4.2223,-2.84507 12.7164,-2.07535 l 7.5436,0.68358 3.3286,-3.634 c 2.2008,-2.402719 3.9356,-3.463619 5.12,-3.131129 0.9853,0.27658 6.1152,0.80004 11.3999,1.16324 l 9.6086,0.66037 1.1864,-9.25094 c 0.6525,-5.0880178 1.3963,-9.5906208 1.6529,-10.0057838 0.9817,-1.58842271 6.7352,-2.03823871 11.4877,-0.89812571 l 4.9559,1.18889171 -0.066,4.150259 c -0.036,2.282642 -0.6043,9.3252588 -1.2624,15.6502578 -1.1386,10.944161 -1.0927,11.758191 0.9501,16.841671 2.1007,5.22733 2.2936,5.39325 9.0124,7.75079 3.7761,1.32502 7.3217,2.23876 7.879,2.03054 0.5574,-0.20822 4.6074,-5.14146 9,-10.96276 7.6584,-10.149041 8.1429,-10.585751 11.7845,-10.622211 5.4724,-0.0548 31.0718,2.987461 31.9065,3.791781 0.3873,0.37327 0.8014,6.75177 0.9203,14.17443 0.1189,7.42267 0.4028,15.78334 0.631,18.57927 0.4091,5.01137 0.4891,5.11984 5.6345,7.6434 5.5782,2.73581 7.9627,5.71624 16.9416,21.17554 5.4879,9.448789 7.0925,16.270049 6.4093,27.247419 -0.5997,9.63626 -3.8611,16.69316 -9.9399,21.50771 -2.0906,1.65576 -3.8039,3.53517 -3.8072,4.17645 0,0.64128 -0.6115,2.32597 -1.3514,3.74375 -0.7398,1.41778 -1.6651,5.46778 -2.056,9 -2.4254,21.91137 -9.4298,39.20423 -17.5885,43.42327 -3.7376,1.9328 -15.8678,1.91315 -26.498,-0.0429 -17.3855,-3.19915 -12.358,-4.72349 -48.0693,14.57466 -61.9517,33.47828 -65.3512,35.21557 -67.9401,34.72066 -3.5331,-0.6754 -5.363,2.6356 -9.2554,16.74655 -1.8206,6.6 -4.8941,15.20625 -6.8301,19.12501 -7.038,14.2464 -18.5023,25.10782 -31.0629,29.42929 -6.5053,2.23815 -8.5243,2.29054 -17.029,0.44189 z"
     inkscape:connector-curvature="0" />
</svg>
